<?xml version='1.0' encoding='utf-8'?>
<mlt LC_NUMERIC="C" producer="main_bin" version="7.17.0" root="/mnt/sda3/0today/buisnes/game_way_fact/github/trailer/CoolTrees/trailer">
 <profile frame_rate_num="25" sample_aspect_num="1" display_aspect_den="9" colorspace="709" progressive="1" description="HD 1080p 25 fps" display_aspect_num="16" frame_rate_den="1" width="1920" height="1080" sample_aspect_den="1"/>
 <producer id="producer12" in="00:00:00.000" out="00:00:01.160">
  <property name="length">30</property>
  <property name="eof">pause</property>
  <property name="resource">pic/gif/tree_groved.gif</property>
  <property name="audio_index">-1</property>
  <property name="video_index">0</property>
  <property name="mute_on_pause">0</property>
  <property name="mlt_service">avformat-novalidate</property>
  <property name="meta.media.nb_streams">1</property>
  <property name="meta.media.0.stream.type">video</property>
  <property name="meta.media.0.stream.frame_rate">6.66667</property>
  <property name="meta.media.0.stream.sample_aspect_ratio">0</property>
  <property name="meta.media.0.codec.width">419</property>
  <property name="meta.media.0.codec.height">578</property>
  <property name="meta.media.0.codec.rotate">0</property>
  <property name="meta.media.0.codec.frame_rate">100</property>
  <property name="meta.media.0.codec.pix_fmt">bgra</property>
  <property name="meta.media.0.codec.sample_aspect_ratio">0</property>
  <property name="meta.media.0.codec.colorspace">601</property>
  <property name="meta.media.0.codec.name">gif</property>
  <property name="meta.media.0.codec.long_name">GIF (Graphics Interchange Format)</property>
  <property name="meta.media.0.codec.bit_rate">0</property>
  <property name="seekable">1</property>
  <property name="meta.media.sample_aspect_num">1</property>
  <property name="meta.media.sample_aspect_den">1</property>
  <property name="aspect_ratio">1</property>
  <property name="kdenlive:clipname"/>
  <property name="kdenlive:folderid">14</property>
  <property name="meta.media.frame_rate_num">20</property>
  <property name="meta.media.frame_rate_den">3</property>
  <property name="meta.media.colorspace">601</property>
  <property name="meta.media.color_trc">2</property>
  <property name="meta.media.has_b_frames">0</property>
  <property name="meta.media.width">419</property>
  <property name="meta.media.height">578</property>
  <property name="meta.media.color_range">mpeg</property>
  <property name="kdenlive:id">3</property>
  <property name="kdenlive:file_size">309902</property>
  <property name="kdenlive:file_hash">ad72e2a3a4fe286197424e1777eac9ea</property>
  <property name="meta.media.top_field_first">0</property>
  <property name="meta.media.progressive">1</property>
  <property name="kdenlive:clip_type">2</property>
 </producer>
 <producer id="producer13" in="00:00:00.000" out="00:00:02.160">
  <property name="length">55</property>
  <property name="eof">pause</property>
  <property name="resource">pic/gif/flowers-gif.gif</property>
  <property name="audio_index">-1</property>
  <property name="video_index">0</property>
  <property name="mute_on_pause">0</property>
  <property name="mlt_service">avformat-novalidate</property>
  <property name="meta.media.nb_streams">1</property>
  <property name="meta.media.0.stream.type">video</property>
  <property name="meta.media.0.stream.frame_rate">17</property>
  <property name="meta.media.0.stream.sample_aspect_ratio">0</property>
  <property name="meta.media.0.codec.width">638</property>
  <property name="meta.media.0.codec.height">159</property>
  <property name="meta.media.0.codec.rotate">0</property>
  <property name="meta.media.0.codec.frame_rate">100</property>
  <property name="meta.media.0.codec.pix_fmt">bgra</property>
  <property name="meta.media.0.codec.sample_aspect_ratio">0</property>
  <property name="meta.media.0.codec.colorspace">601</property>
  <property name="meta.media.0.codec.name">gif</property>
  <property name="meta.media.0.codec.long_name">GIF (Graphics Interchange Format)</property>
  <property name="meta.media.0.codec.bit_rate">0</property>
  <property name="seekable">1</property>
  <property name="meta.media.sample_aspect_num">1</property>
  <property name="meta.media.sample_aspect_den">1</property>
  <property name="aspect_ratio">1</property>
  <property name="kdenlive:clipname"/>
  <property name="kdenlive:folderid">14</property>
  <property name="meta.media.frame_rate_num">17</property>
  <property name="meta.media.frame_rate_den">1</property>
  <property name="meta.media.colorspace">601</property>
  <property name="meta.media.color_trc">2</property>
  <property name="meta.media.has_b_frames">0</property>
  <property name="meta.media.width">638</property>
  <property name="meta.media.height">159</property>
  <property name="meta.media.color_range">mpeg</property>
  <property name="kdenlive:id">4</property>
  <property name="kdenlive:file_size">1314887</property>
  <property name="kdenlive:file_hash">927b54f170ceb8c31f15e59c61ddc068</property>
  <property name="meta.media.top_field_first">0</property>
  <property name="meta.media.progressive">1</property>
  <property name="kdenlive:clip_type">2</property>
 </producer>
 <producer id="producer9" in="00:00:00.000" out="00:00:00.920">
  <property name="length">24</property>
  <property name="eof">pause</property>
  <property name="resource">pic/gif/village/fernando-henrique-vila-livre-11.gif</property>
  <property name="audio_index">-1</property>
  <property name="video_index">0</property>
  <property name="mute_on_pause">0</property>
  <property name="mlt_service">avformat-novalidate</property>
  <property name="meta.media.nb_streams">1</property>
  <property name="meta.media.0.stream.type">video</property>
  <property name="meta.media.0.stream.frame_rate">8.33333</property>
  <property name="meta.media.0.stream.sample_aspect_ratio">0</property>
  <property name="meta.media.0.codec.width">1920</property>
  <property name="meta.media.0.codec.height">720</property>
  <property name="meta.media.0.codec.rotate">0</property>
  <property name="meta.media.0.codec.frame_rate">100</property>
  <property name="meta.media.0.codec.pix_fmt">bgra</property>
  <property name="meta.media.0.codec.sample_aspect_ratio">0</property>
  <property name="meta.media.0.codec.colorspace">709</property>
  <property name="meta.media.0.codec.name">gif</property>
  <property name="meta.media.0.codec.long_name">GIF (Graphics Interchange Format)</property>
  <property name="meta.media.0.codec.bit_rate">0</property>
  <property name="seekable">1</property>
  <property name="meta.media.sample_aspect_num">1</property>
  <property name="meta.media.sample_aspect_den">1</property>
  <property name="aspect_ratio">1</property>
  <property name="kdenlive:clipname"/>
  <property name="kdenlive:folderid">7</property>
  <property name="meta.media.frame_rate_num">25</property>
  <property name="meta.media.frame_rate_den">3</property>
  <property name="meta.media.colorspace">709</property>
  <property name="meta.media.color_trc">2</property>
  <property name="meta.media.has_b_frames">0</property>
  <property name="meta.media.width">1920</property>
  <property name="meta.media.height">720</property>
  <property name="meta.media.color_range">mpeg</property>
  <property name="kdenlive:id">5</property>
  <property name="kdenlive:file_size">1501080</property>
  <property name="kdenlive:file_hash">5c0f34e184af21b27fbd15e9165c4344</property>
  <property name="meta.media.top_field_first">0</property>
  <property name="meta.media.progressive">1</property>
  <property name="kdenlive:clip_type">2</property>
 </producer>
 <producer id="producer10" in="00:00:00.000" out="00:00:00.920">
  <property name="length">24</property>
  <property name="eof">pause</property>
  <property name="resource">pic/gif/village/fernando-henrique-vila-livre-windmill.gif</property>
  <property name="audio_index">-1</property>
  <property name="video_index">0</property>
  <property name="mute_on_pause">0</property>
  <property name="mlt_service">avformat-novalidate</property>
  <property name="meta.media.nb_streams">1</property>
  <property name="meta.media.0.stream.type">video</property>
  <property name="meta.media.0.stream.frame_rate">8.33333</property>
  <property name="meta.media.0.stream.sample_aspect_ratio">0</property>
  <property name="meta.media.0.codec.width">720</property>
  <property name="meta.media.0.codec.height">720</property>
  <property name="meta.media.0.codec.rotate">0</property>
  <property name="meta.media.0.codec.frame_rate">100</property>
  <property name="meta.media.0.codec.pix_fmt">bgra</property>
  <property name="meta.media.0.codec.sample_aspect_ratio">0</property>
  <property name="meta.media.0.codec.colorspace">601</property>
  <property name="meta.media.0.codec.name">gif</property>
  <property name="meta.media.0.codec.long_name">GIF (Graphics Interchange Format)</property>
  <property name="meta.media.0.codec.bit_rate">0</property>
  <property name="seekable">1</property>
  <property name="meta.media.sample_aspect_num">1</property>
  <property name="meta.media.sample_aspect_den">1</property>
  <property name="aspect_ratio">1</property>
  <property name="kdenlive:clipname"/>
  <property name="kdenlive:folderid">7</property>
  <property name="meta.media.frame_rate_num">25</property>
  <property name="meta.media.frame_rate_den">3</property>
  <property name="meta.media.colorspace">601</property>
  <property name="meta.media.color_trc">2</property>
  <property name="meta.media.has_b_frames">0</property>
  <property name="meta.media.width">720</property>
  <property name="meta.media.height">720</property>
  <property name="meta.media.color_range">mpeg</property>
  <property name="kdenlive:id">6</property>
  <property name="kdenlive:file_size">448638</property>
  <property name="kdenlive:file_hash">3b9a47ab4e09e9e127b6600bd3e5e0b8</property>
  <property name="meta.media.top_field_first">0</property>
  <property name="meta.media.progressive">1</property>
  <property name="kdenlive:clip_type">2</property>
  <property name="warp_pitch">1</property>
 </producer>
 <producer id="producer11" in="00:00:00.000" out="00:00:00.360">
  <property name="length">10</property>
  <property name="eof">pause</property>
  <property name="resource">pic/gif/village/MRZ5ts9d.gif</property>
  <property name="audio_index">-1</property>
  <property name="video_index">0</property>
  <property name="mute_on_pause">0</property>
  <property name="mlt_service">avformat-novalidate</property>
  <property name="meta.media.nb_streams">1</property>
  <property name="meta.media.0.stream.type">video</property>
  <property name="meta.media.0.stream.frame_rate">10</property>
  <property name="meta.media.0.stream.sample_aspect_ratio">0</property>
  <property name="meta.media.0.codec.width">623</property>
  <property name="meta.media.0.codec.height">224</property>
  <property name="meta.media.0.codec.rotate">0</property>
  <property name="meta.media.0.codec.frame_rate">100</property>
  <property name="meta.media.0.codec.pix_fmt">bgra</property>
  <property name="meta.media.0.codec.sample_aspect_ratio">0</property>
  <property name="meta.media.0.codec.colorspace">601</property>
  <property name="meta.media.0.codec.name">gif</property>
  <property name="meta.media.0.codec.long_name">GIF (Graphics Interchange Format)</property>
  <property name="meta.media.0.codec.bit_rate">0</property>
  <property name="seekable">1</property>
  <property name="meta.media.sample_aspect_num">1</property>
  <property name="meta.media.sample_aspect_den">1</property>
  <property name="aspect_ratio">1</property>
  <property name="kdenlive:clipname"/>
  <property name="kdenlive:folderid">7</property>
  <property name="meta.media.frame_rate_num">10</property>
  <property name="meta.media.frame_rate_den">1</property>
  <property name="meta.media.colorspace">601</property>
  <property name="meta.media.color_trc">2</property>
  <property name="meta.media.has_b_frames">0</property>
  <property name="meta.media.width">623</property>
  <property name="meta.media.height">224</property>
  <property name="meta.media.color_range">mpeg</property>
  <property name="kdenlive:id">8</property>
  <property name="kdenlive:file_size">67417</property>
  <property name="kdenlive:file_hash">b2b72546f0680fc598921bd8c723ceea</property>
  <property name="meta.media.top_field_first">0</property>
  <property name="meta.media.progressive">1</property>
  <property name="kdenlive:activeeffect">0</property>
  <property name="kdenlive:clip_type">2</property>
  <property name="format">2</property>
  <filter id="filter20">
   <property name="mlt_service">crop</property>
   <property name="kdenlive_id">crop</property>
   <property name="top">0</property>
   <property name="left">0</property>
   <property name="bottom">0</property>
   <property name="right">0</property>
   <property name="center">0</property>
   <property name="center_bias">0</property>
   <property name="use_profile">0</property>
   <property name="kdenlive:collapsed">0</property>
  </filter>
 </producer>
 <producer id="producer14" in="00:00:00.000" out="00:00:02.360">
  <property name="length">60</property>
  <property name="eof">pause</property>
  <property name="resource">pic/gif/tree_begin/tree_begin.gif</property>
  <property name="audio_index">-1</property>
  <property name="video_index">0</property>
  <property name="mute_on_pause">0</property>
  <property name="mlt_service">avformat-novalidate</property>
  <property name="meta.media.nb_streams">1</property>
  <property name="meta.media.0.stream.type">video</property>
  <property name="meta.media.0.stream.frame_rate">10</property>
  <property name="meta.media.0.stream.sample_aspect_ratio">0</property>
  <property name="meta.media.0.codec.width">500</property>
  <property name="meta.media.0.codec.height">538</property>
  <property name="meta.media.0.codec.rotate">0</property>
  <property name="meta.media.0.codec.frame_rate">100</property>
  <property name="meta.media.0.codec.pix_fmt">bgra</property>
  <property name="meta.media.0.codec.sample_aspect_ratio">0</property>
  <property name="meta.media.0.codec.colorspace">601</property>
  <property name="meta.media.0.codec.name">gif</property>
  <property name="meta.media.0.codec.long_name">GIF (Graphics Interchange Format)</property>
  <property name="meta.media.0.codec.bit_rate">0</property>
  <property name="seekable">1</property>
  <property name="meta.media.sample_aspect_num">1</property>
  <property name="meta.media.sample_aspect_den">1</property>
  <property name="aspect_ratio">1</property>
  <property name="kdenlive:clipname"/>
  <property name="kdenlive:folderid">14</property>
  <property name="meta.media.frame_rate_num">10</property>
  <property name="meta.media.frame_rate_den">1</property>
  <property name="meta.media.colorspace">601</property>
  <property name="meta.media.color_trc">2</property>
  <property name="meta.media.has_b_frames">0</property>
  <property name="meta.media.width">500</property>
  <property name="meta.media.height">538</property>
  <property name="meta.media.color_range">mpeg</property>
  <property name="kdenlive:id">9</property>
  <property name="kdenlive:file_size">167579</property>
  <property name="kdenlive:file_hash">1faf29b4b45488252b003ce5d146af29</property>
  <property name="meta.media.top_field_first">0</property>
  <property name="meta.media.progressive">1</property>
  <property name="kdenlive:clip_type">2</property>
 </producer>
 <chain id="chain20" out="00:00:35.960">
  <property name="length">900</property>
  <property name="eof">pause</property>
  <property name="resource">pic/gif/tree_begin/tree_begin_301sec.mov</property>
  <property name="mlt_service">avformat-novalidate</property>
  <property name="meta.media.nb_streams">2</property>
  <property name="meta.media.0.stream.type">video</property>
  <property name="meta.media.0.stream.frame_rate">10</property>
  <property name="meta.media.0.stream.sample_aspect_ratio">1</property>
  <property name="meta.media.0.codec.width">500</property>
  <property name="meta.media.0.codec.height">538</property>
  <property name="meta.media.0.codec.rotate">0</property>
  <property name="meta.media.0.codec.pix_fmt">argb</property>
  <property name="meta.media.0.codec.sample_aspect_ratio">0</property>
  <property name="meta.media.0.codec.colorspace">0</property>
  <property name="meta.media.0.codec.color_trc">6</property>
  <property name="meta.media.0.codec.name">qtrle</property>
  <property name="meta.media.0.codec.long_name">QuickTime Animation (RLE) video</property>
  <property name="meta.media.0.codec.bit_rate">1123113</property>
  <property name="meta.attr.0.stream.handler_name.markup">VideoHandler</property>
  <property name="meta.attr.0.stream.vendor_id.markup">FFMP</property>
  <property name="meta.media.1.stream.type">audio</property>
  <property name="meta.media.1.codec.sample_fmt">fltp</property>
  <property name="meta.media.1.codec.sample_rate">48000</property>
  <property name="meta.media.1.codec.channels">2</property>
  <property name="meta.media.1.codec.name">aac</property>
  <property name="meta.media.1.codec.long_name">AAC (Advanced Audio Coding)</property>
  <property name="meta.media.1.codec.bit_rate">2273</property>
  <property name="meta.attr.1.stream.handler_name.markup">SoundHandler</property>
  <property name="meta.attr.1.stream.vendor_id.markup">[0][0][0][0]</property>
  <property name="meta.attr.major_brand.markup">qt  </property>
  <property name="meta.attr.minor_version.markup">512</property>
  <property name="meta.attr.compatible_brands.markup">qt  </property>
  <property name="meta.attr.encoder.markup">Lavf60.3.100</property>
  <property name="seekable">1</property>
  <property name="meta.media.sample_aspect_num">1</property>
  <property name="meta.media.sample_aspect_den">1</property>
  <property name="audio_index">1</property>
  <property name="video_index">0</property>
  <property name="meta.media.frame_rate_num">10</property>
  <property name="meta.media.frame_rate_den">1</property>
  <property name="meta.media.colorspace">601</property>
  <property name="meta.media.color_trc">6</property>
  <property name="meta.media.has_b_frames">0</property>
  <property name="meta.media.width">500</property>
  <property name="meta.media.height">538</property>
  <property name="meta.media.color_range">mpeg</property>
  <property name="kdenlive:clipname"/>
  <property name="meta.media.top_field_first">0</property>
  <property name="meta.media.progressive">1</property>
  <property name="kdenlive:clip_type">0</property>
  <property name="kdenlive:folderid">14</property>
  <property name="kdenlive:id">11</property>
  <property name="mute_on_pause">0</property>
  <property name="kdenlive:file_size">5079571</property>
  <property name="kdenlive:file_hash">8491462b1659e81057d38b1c58390a9b</property>
  <property name="kdenlive:audio_max1">1</property>
 </chain>
 <chain id="chain12" out="00:00:20.360">
  <property name="length">510</property>
  <property name="eof">pause</property>
  <property name="resource">pic/gif/village/MRZ5ts9d.webm</property>
  <property name="mlt_service">avformat-novalidate</property>
  <property name="meta.media.nb_streams">1</property>
  <property name="meta.media.0.stream.type">video</property>
  <property name="meta.media.0.stream.frame_rate">25</property>
  <property name="meta.media.0.stream.sample_aspect_ratio">1</property>
  <property name="meta.media.0.codec.width">1920</property>
  <property name="meta.media.0.codec.height">1080</property>
  <property name="meta.media.0.codec.rotate">0</property>
  <property name="meta.media.0.codec.pix_fmt">yuv420p</property>
  <property name="meta.media.0.codec.sample_aspect_ratio">0</property>
  <property name="meta.media.0.codec.colorspace">709</property>
  <property name="meta.media.0.codec.color_trc">1</property>
  <property name="meta.media.0.codec.name">vp8</property>
  <property name="meta.media.0.codec.long_name">On2 VP8</property>
  <property name="meta.media.0.codec.bit_rate">0</property>
  <property name="meta.attr.0.stream.alpha_mode.markup">1</property>
  <property name="meta.attr.0.stream.DURATION.markup">00:00:20.400000000</property>
  <property name="meta.attr.ENCODER.markup">Lavf60.3.100</property>
  <property name="seekable">1</property>
  <property name="meta.media.sample_aspect_num">1</property>
  <property name="meta.media.sample_aspect_den">1</property>
  <property name="audio_index">-1</property>
  <property name="video_index">0</property>
  <property name="meta.media.frame_rate_num">25</property>
  <property name="meta.media.frame_rate_den">1</property>
  <property name="meta.media.colorspace">709</property>
  <property name="meta.media.color_trc">1</property>
  <property name="meta.media.has_b_frames">0</property>
  <property name="meta.media.width">1920</property>
  <property name="meta.media.height">1080</property>
  <property name="meta.media.color_range">mpeg</property>
  <property name="kdenlive:clipname"/>
  <property name="meta.media.top_field_first">0</property>
  <property name="meta.media.progressive">1</property>
  <property name="kdenlive:clip_type">2</property>
  <property name="kdenlive:folderid">7</property>
  <property name="kdenlive:id">13</property>
  <property name="mute_on_pause">0</property>
  <property name="kdenlive:file_size">14482736</property>
  <property name="kdenlive:file_hash">801d0d6b63abfb3170f6035017354b03</property>
 </chain>
 <chain id="chain13" out="00:00:31.560">
  <property name="length">790</property>
  <property name="eof">pause</property>
  <property name="resource">pic/gif/village/village_19ageNKk5.gif</property>
  <property name="mlt_service">avformat-novalidate</property>
  <property name="meta.media.nb_streams">1</property>
  <property name="meta.media.0.stream.type">video</property>
  <property name="meta.media.0.stream.frame_rate">1.04167</property>
  <property name="meta.media.0.stream.sample_aspect_ratio">0</property>
  <property name="meta.media.0.codec.width">720</property>
  <property name="meta.media.0.codec.height">350</property>
  <property name="meta.media.0.codec.rotate">0</property>
  <property name="meta.media.0.codec.pix_fmt">bgra</property>
  <property name="meta.media.0.codec.sample_aspect_ratio">0</property>
  <property name="meta.media.0.codec.colorspace">601</property>
  <property name="meta.media.0.codec.name">gif</property>
  <property name="meta.media.0.codec.long_name">GIF (Graphics Interchange Format)</property>
  <property name="meta.media.0.codec.bit_rate">0</property>
  <property name="seekable">1</property>
  <property name="meta.media.sample_aspect_num">1</property>
  <property name="meta.media.sample_aspect_den">1</property>
  <property name="audio_index">-1</property>
  <property name="video_index">0</property>
  <property name="meta.media.frame_rate_num">25</property>
  <property name="meta.media.frame_rate_den">24</property>
  <property name="meta.media.colorspace">601</property>
  <property name="meta.media.color_trc">2</property>
  <property name="meta.media.has_b_frames">0</property>
  <property name="meta.media.width">720</property>
  <property name="meta.media.height">350</property>
  <property name="meta.media.color_range">mpeg</property>
  <property name="kdenlive:clipname"/>
  <property name="meta.media.variable_frame_rate">1</property>
  <property name="meta.media.top_field_first">0</property>
  <property name="meta.media.progressive">1</property>
  <property name="kdenlive:clip_type">2</property>
  <property name="kdenlive:folderid">7</property>
  <property name="kdenlive:id">16</property>
  <property name="mute_on_pause">0</property>
  <property name="kdenlive:file_size">81013</property>
  <property name="kdenlive:file_hash">69b7b3dfe49906397599fcae01de7bd8</property>
 </chain>
 <chain id="chain14" out="00:00:01.160">
  <property name="length">30</property>
  <property name="eof">pause</property>
  <property name="resource">pic/gif/village/afiny_99811d932e15119b27c00b8c18549e24.gif</property>
  <property name="mlt_service">avformat-novalidate</property>
  <property name="meta.media.nb_streams">1</property>
  <property name="meta.media.0.stream.type">video</property>
  <property name="meta.media.0.stream.frame_rate">5</property>
  <property name="meta.media.0.stream.sample_aspect_ratio">0</property>
  <property name="meta.media.0.codec.width">960</property>
  <property name="meta.media.0.codec.height">600</property>
  <property name="meta.media.0.codec.rotate">0</property>
  <property name="meta.media.0.codec.pix_fmt">bgra</property>
  <property name="meta.media.0.codec.sample_aspect_ratio">0</property>
  <property name="meta.media.0.codec.colorspace">601</property>
  <property name="meta.media.0.codec.name">gif</property>
  <property name="meta.media.0.codec.long_name">GIF (Graphics Interchange Format)</property>
  <property name="meta.media.0.codec.bit_rate">0</property>
  <property name="seekable">1</property>
  <property name="meta.media.sample_aspect_num">1</property>
  <property name="meta.media.sample_aspect_den">1</property>
  <property name="audio_index">-1</property>
  <property name="video_index">0</property>
  <property name="meta.media.frame_rate_num">5</property>
  <property name="meta.media.frame_rate_den">1</property>
  <property name="meta.media.colorspace">601</property>
  <property name="meta.media.color_trc">2</property>
  <property name="meta.media.has_b_frames">0</property>
  <property name="meta.media.width">960</property>
  <property name="meta.media.height">600</property>
  <property name="meta.media.color_range">mpeg</property>
  <property name="kdenlive:clipname"/>
  <property name="meta.media.top_field_first">0</property>
  <property name="meta.media.progressive">1</property>
  <property name="kdenlive:clip_type">2</property>
  <property name="kdenlive:folderid">7</property>
  <property name="kdenlive:id">17</property>
  <property name="mute_on_pause">0</property>
  <property name="kdenlive:file_size">237168</property>
  <property name="kdenlive:file_hash">1df4cdb8f6f57eb073015a21557c5cbd</property>
 </chain>
 <chain id="chain21" out="00:00:09.200">
  <property name="length">231</property>
  <property name="eof">pause</property>
  <property name="resource">pic/gif/attacks/attack_SxQ.gif</property>
  <property name="mlt_service">avformat-novalidate</property>
  <property name="meta.media.nb_streams">1</property>
  <property name="meta.media.0.stream.type">video</property>
  <property name="meta.media.0.stream.frame_rate">33.5664</property>
  <property name="meta.media.0.stream.sample_aspect_ratio">0</property>
  <property name="meta.media.0.codec.width">1221</property>
  <property name="meta.media.0.codec.height">660</property>
  <property name="meta.media.0.codec.rotate">0</property>
  <property name="meta.media.0.codec.pix_fmt">bgra</property>
  <property name="meta.media.0.codec.sample_aspect_ratio">0</property>
  <property name="meta.media.0.codec.colorspace">709</property>
  <property name="meta.media.0.codec.name">gif</property>
  <property name="meta.media.0.codec.long_name">GIF (Graphics Interchange Format)</property>
  <property name="meta.media.0.codec.bit_rate">0</property>
  <property name="seekable">1</property>
  <property name="meta.media.sample_aspect_num">1</property>
  <property name="meta.media.sample_aspect_den">1</property>
  <property name="audio_index">-1</property>
  <property name="video_index">0</property>
  <property name="meta.media.frame_rate_num">4800</property>
  <property name="meta.media.frame_rate_den">143</property>
  <property name="meta.media.colorspace">709</property>
  <property name="meta.media.color_trc">2</property>
  <property name="meta.media.has_b_frames">0</property>
  <property name="meta.media.width">1221</property>
  <property name="meta.media.height">660</property>
  <property name="meta.media.color_range">mpeg</property>
  <property name="kdenlive:clipname"/>
  <property name="meta.media.variable_frame_rate">1</property>
  <property name="meta.media.top_field_first">0</property>
  <property name="meta.media.progressive">1</property>
  <property name="kdenlive:clip_type">2</property>
  <property name="kdenlive:folderid">22</property>
  <property name="kdenlive:id">18</property>
  <property name="mute_on_pause">0</property>
  <property name="kdenlive:file_size">1093651</property>
  <property name="kdenlive:file_hash">ca7d5760efa1edd4308ad0ec5fbe1fdc</property>
 </chain>
 <chain id="chain15" out="00:00:19.360">
  <property name="length">485</property>
  <property name="eof">pause</property>
  <property name="resource">pic/gif/village/fire/fire_BestOf.gif</property>
  <property name="mlt_service">avformat-novalidate</property>
  <property name="meta.media.nb_streams">1</property>
  <property name="meta.media.0.stream.type">video</property>
  <property name="meta.media.0.stream.frame_rate">10</property>
  <property name="meta.media.0.stream.sample_aspect_ratio">0</property>
  <property name="meta.media.0.codec.width">328</property>
  <property name="meta.media.0.codec.height">240</property>
  <property name="meta.media.0.codec.rotate">0</property>
  <property name="meta.media.0.codec.pix_fmt">bgra</property>
  <property name="meta.media.0.codec.sample_aspect_ratio">0</property>
  <property name="meta.media.0.codec.colorspace">601</property>
  <property name="meta.media.0.codec.name">gif</property>
  <property name="meta.media.0.codec.long_name">GIF (Graphics Interchange Format)</property>
  <property name="meta.media.0.codec.bit_rate">0</property>
  <property name="seekable">1</property>
  <property name="meta.media.sample_aspect_num">1</property>
  <property name="meta.media.sample_aspect_den">1</property>
  <property name="audio_index">-1</property>
  <property name="video_index">0</property>
  <property name="meta.media.frame_rate_num">10</property>
  <property name="meta.media.frame_rate_den">1</property>
  <property name="meta.media.colorspace">601</property>
  <property name="meta.media.color_trc">2</property>
  <property name="meta.media.has_b_frames">0</property>
  <property name="meta.media.width">328</property>
  <property name="meta.media.height">240</property>
  <property name="meta.media.color_range">mpeg</property>
  <property name="kdenlive:clipname"/>
  <property name="meta.media.top_field_first">0</property>
  <property name="meta.media.progressive">1</property>
  <property name="kdenlive:clip_type">2</property>
  <property name="kdenlive:folderid">29</property>
  <property name="kdenlive:id">19</property>
  <property name="mute_on_pause">0</property>
  <property name="kdenlive:file_size">1170820</property>
  <property name="kdenlive:file_hash">e579bd7a80c6cd3a23e1621d7a34e0eb</property>
 </chain>
 <chain id="chain16" out="00:00:01.160">
  <property name="length">30</property>
  <property name="eof">pause</property>
  <property name="resource">pic/gif/village/fire/fire_village.gif</property>
  <property name="mlt_service">avformat-novalidate</property>
  <property name="meta.media.nb_streams">1</property>
  <property name="meta.media.0.stream.type">video</property>
  <property name="meta.media.0.stream.frame_rate">6.66667</property>
  <property name="meta.media.0.stream.sample_aspect_ratio">0</property>
  <property name="meta.media.0.codec.width">700</property>
  <property name="meta.media.0.codec.height">544</property>
  <property name="meta.media.0.codec.rotate">0</property>
  <property name="meta.media.0.codec.pix_fmt">bgra</property>
  <property name="meta.media.0.codec.sample_aspect_ratio">0</property>
  <property name="meta.media.0.codec.colorspace">601</property>
  <property name="meta.media.0.codec.name">gif</property>
  <property name="meta.media.0.codec.long_name">GIF (Graphics Interchange Format)</property>
  <property name="meta.media.0.codec.bit_rate">0</property>
  <property name="seekable">1</property>
  <property name="meta.media.sample_aspect_num">1</property>
  <property name="meta.media.sample_aspect_den">1</property>
  <property name="audio_index">-1</property>
  <property name="video_index">0</property>
  <property name="meta.media.frame_rate_num">20</property>
  <property name="meta.media.frame_rate_den">3</property>
  <property name="meta.media.colorspace">601</property>
  <property name="meta.media.color_trc">2</property>
  <property name="meta.media.has_b_frames">0</property>
  <property name="meta.media.width">700</property>
  <property name="meta.media.height">544</property>
  <property name="meta.media.color_range">mpeg</property>
  <property name="kdenlive:clipname"/>
  <property name="meta.media.top_field_first">0</property>
  <property name="meta.media.progressive">1</property>
  <property name="kdenlive:clip_type">2</property>
  <property name="kdenlive:folderid">29</property>
  <property name="kdenlive:id">20</property>
  <property name="mute_on_pause">0</property>
  <property name="kdenlive:file_size">264727</property>
  <property name="kdenlive:file_hash">923f480de1ca5b34b9c9e3464a83a64d</property>
 </chain>
 <chain id="chain17" out="00:00:03.160">
  <property name="length">80</property>
  <property name="eof">pause</property>
  <property name="resource">pic/gif/village/fire/fire_village_wp3284837.gif</property>
  <property name="mlt_service">avformat-novalidate</property>
  <property name="meta.media.nb_streams">1</property>
  <property name="meta.media.0.stream.type">video</property>
  <property name="meta.media.0.stream.frame_rate">10</property>
  <property name="meta.media.0.stream.sample_aspect_ratio">0</property>
  <property name="meta.media.0.codec.width">1200</property>
  <property name="meta.media.0.codec.height">900</property>
  <property name="meta.media.0.codec.rotate">0</property>
  <property name="meta.media.0.codec.pix_fmt">bgra</property>
  <property name="meta.media.0.codec.sample_aspect_ratio">0</property>
  <property name="meta.media.0.codec.colorspace">709</property>
  <property name="meta.media.0.codec.name">gif</property>
  <property name="meta.media.0.codec.long_name">GIF (Graphics Interchange Format)</property>
  <property name="meta.media.0.codec.bit_rate">0</property>
  <property name="seekable">1</property>
  <property name="meta.media.sample_aspect_num">1</property>
  <property name="meta.media.sample_aspect_den">1</property>
  <property name="audio_index">-1</property>
  <property name="video_index">0</property>
  <property name="meta.media.frame_rate_num">10</property>
  <property name="meta.media.frame_rate_den">1</property>
  <property name="meta.media.colorspace">709</property>
  <property name="meta.media.color_trc">2</property>
  <property name="meta.media.has_b_frames">0</property>
  <property name="meta.media.width">1200</property>
  <property name="meta.media.height">900</property>
  <property name="meta.media.color_range">mpeg</property>
  <property name="kdenlive:clipname"/>
  <property name="meta.media.top_field_first">0</property>
  <property name="meta.media.progressive">1</property>
  <property name="kdenlive:clip_type">2</property>
  <property name="kdenlive:folderid">29</property>
  <property name="kdenlive:id">21</property>
  <property name="mute_on_pause">0</property>
  <property name="kdenlive:file_size">2270572</property>
  <property name="kdenlive:file_hash">7ce2f6b4902f6fa3a461da69ea23c4e7</property>
 </chain>
 <producer id="producer2" in="00:00:00.000" out="00:00:04.960">
  <property name="length">00:00:05.000</property>
  <property name="eof">pause</property>
  <property name="resource">pic/gif/village/village_dcb0c8d7e4a5b43601f97d5904e22e32.png</property>
  <property name="ttl">25</property>
  <property name="aspect_ratio">1</property>
  <property name="meta.media.progressive">1</property>
  <property name="seekable">1</property>
  <property name="format">1</property>
  <property name="meta.media.width">1024</property>
  <property name="meta.media.height">481</property>
  <property name="mlt_service">qimage</property>
  <property name="kdenlive:clipname"/>
  <property name="kdenlive:duration">00:00:05:00</property>
  <property name="kdenlive:folderid">7</property>
  <property name="kdenlive:id">23</property>
  <property name="kdenlive:clip_type">2</property>
  <property name="kdenlive:file_size">190638</property>
  <property name="kdenlive:file_hash">d46a766c70793352c3a578cfc446c29b</property>
 </producer>
 <chain id="chain19" out="00:00:03.640">
  <property name="length">92</property>
  <property name="eof">pause</property>
  <property name="resource">pic/gif/animal/dog_run_all.mov</property>
  <property name="mlt_service">avformat-novalidate</property>
  <property name="meta.media.nb_streams">1</property>
  <property name="meta.media.0.stream.type">video</property>
  <property name="meta.media.0.stream.frame_rate">24</property>
  <property name="meta.media.0.stream.sample_aspect_ratio">1</property>
  <property name="meta.media.0.codec.width">768</property>
  <property name="meta.media.0.codec.height">768</property>
  <property name="meta.media.0.codec.rotate">0</property>
  <property name="meta.media.0.codec.pix_fmt">argb</property>
  <property name="meta.media.0.codec.sample_aspect_ratio">0</property>
  <property name="meta.media.0.codec.colorspace">0</property>
  <property name="meta.media.0.codec.color_trc">6</property>
  <property name="meta.media.0.codec.name">qtrle</property>
  <property name="meta.media.0.codec.long_name">QuickTime Animation (RLE) video</property>
  <property name="meta.media.0.codec.bit_rate">3561741</property>
  <property name="meta.attr.0.stream.handler_name.markup">VideoHandler</property>
  <property name="meta.attr.0.stream.vendor_id.markup">FFMP</property>
  <property name="meta.attr.major_brand.markup">qt  </property>
  <property name="meta.attr.minor_version.markup">512</property>
  <property name="meta.attr.compatible_brands.markup">qt  </property>
  <property name="meta.attr.encoder.markup">Lavf60.3.100</property>
  <property name="seekable">1</property>
  <property name="meta.media.sample_aspect_num">1</property>
  <property name="meta.media.sample_aspect_den">1</property>
  <property name="audio_index">-1</property>
  <property name="video_index">0</property>
  <property name="meta.media.frame_rate_num">24</property>
  <property name="meta.media.frame_rate_den">1</property>
  <property name="meta.media.colorspace">601</property>
  <property name="meta.media.color_trc">6</property>
  <property name="meta.media.has_b_frames">0</property>
  <property name="meta.media.width">768</property>
  <property name="meta.media.height">768</property>
  <property name="meta.media.color_range">mpeg</property>
  <property name="kdenlive:clipname"/>
  <property name="meta.media.top_field_first">0</property>
  <property name="meta.media.progressive">1</property>
  <property name="kdenlive:clip_type">2</property>
  <property name="kdenlive:folderid">12</property>
  <property name="kdenlive:id">24</property>
  <property name="mute_on_pause">0</property>
  <property name="kdenlive:file_size">1633630</property>
  <property name="kdenlive:file_hash">46e0444915639f3bb3521faf715f402e</property>
 </chain>
 <chain id="chain18" out="00:00:19.160">
  <property name="length">480</property>
  <property name="eof">pause</property>
  <property name="resource">pic/gif/village/japan_242e379f970c22bf30e1689290627058.gif</property>
  <property name="mlt_service">avformat-novalidate</property>
  <property name="meta.media.nb_streams">1</property>
  <property name="meta.media.0.stream.type">video</property>
  <property name="meta.media.0.stream.frame_rate">12.5</property>
  <property name="meta.media.0.stream.sample_aspect_ratio">0</property>
  <property name="meta.media.0.codec.width">1580</property>
  <property name="meta.media.0.codec.height">725</property>
  <property name="meta.media.0.codec.rotate">0</property>
  <property name="meta.media.0.codec.pix_fmt">bgra</property>
  <property name="meta.media.0.codec.sample_aspect_ratio">0</property>
  <property name="meta.media.0.codec.colorspace">709</property>
  <property name="meta.media.0.codec.name">gif</property>
  <property name="meta.media.0.codec.long_name">GIF (Graphics Interchange Format)</property>
  <property name="meta.media.0.codec.bit_rate">0</property>
  <property name="seekable">1</property>
  <property name="meta.media.sample_aspect_num">1</property>
  <property name="meta.media.sample_aspect_den">1</property>
  <property name="audio_index">-1</property>
  <property name="video_index">0</property>
  <property name="meta.media.frame_rate_num">25</property>
  <property name="meta.media.frame_rate_den">2</property>
  <property name="meta.media.colorspace">709</property>
  <property name="meta.media.color_trc">2</property>
  <property name="meta.media.has_b_frames">0</property>
  <property name="meta.media.width">1580</property>
  <property name="meta.media.height">725</property>
  <property name="meta.media.color_range">mpeg</property>
  <property name="kdenlive:clipname"/>
  <property name="meta.media.top_field_first">0</property>
  <property name="meta.media.progressive">1</property>
  <property name="kdenlive:clip_type">2</property>
  <property name="kdenlive:folderid">7</property>
  <property name="kdenlive:id">25</property>
  <property name="mute_on_pause">0</property>
  <property name="kdenlive:file_size">1046731</property>
  <property name="kdenlive:file_hash">ef08d117f320d1e142f79c4413e0a2bf</property>
 </chain>
 <chain id="chain10" out="00:02:09.440">
  <property name="length">3237</property>
  <property name="eof">pause</property>
  <property name="resource">music/new_world_189470bcdbd7dd2.mp3</property>
  <property name="mlt_service">avformat</property>
  <property name="meta.media.nb_streams">1</property>
  <property name="meta.media.0.stream.type">audio</property>
  <property name="meta.media.0.codec.sample_fmt">fltp</property>
  <property name="meta.media.0.codec.sample_rate">44100</property>
  <property name="meta.media.0.codec.channels">1</property>
  <property name="meta.media.0.codec.name">mp3float</property>
  <property name="meta.media.0.codec.long_name">MP3 (MPEG audio layer 3)</property>
  <property name="meta.media.0.codec.bit_rate">64000</property>
  <property name="meta.attr.0.stream.encoder.markup">LAME3.99r</property>
  <property name="seekable">1</property>
  <property name="audio_index">0</property>
  <property name="video_index">-1</property>
  <property name="kdenlive:clipname"/>
  <property name="kdenlive:clip_type">1</property>
  <property name="kdenlive:folderid">37</property>
  <property name="kdenlive:id">26</property>
  <property name="kdenlive:file_size">1035910</property>
  <property name="kdenlive:file_hash">5ce59b4c31ddec1e26cb2f557995a134</property>
  <property name="kdenlive:audio_max0">246</property>
 </chain>
 <chain id="chain11" out="00:01:00.080">
  <property name="length">1503</property>
  <property name="eof">pause</property>
  <property name="resource">music/for_cool_ations_17eae64af67feb7.mp3</property>
  <property name="mlt_service">avformat</property>
  <property name="meta.media.nb_streams">1</property>
  <property name="meta.media.0.stream.type">audio</property>
  <property name="meta.media.0.codec.sample_fmt">fltp</property>
  <property name="meta.media.0.codec.sample_rate">44100</property>
  <property name="meta.media.0.codec.channels">1</property>
  <property name="meta.media.0.codec.name">mp3float</property>
  <property name="meta.media.0.codec.long_name">MP3 (MPEG audio layer 3)</property>
  <property name="meta.media.0.codec.bit_rate">64000</property>
  <property name="meta.attr.0.stream.encoder.markup">LAME3.99r</property>
  <property name="seekable">1</property>
  <property name="audio_index">0</property>
  <property name="video_index">-1</property>
  <property name="kdenlive:clipname"/>
  <property name="kdenlive:clip_type">1</property>
  <property name="kdenlive:folderid">37</property>
  <property name="kdenlive:id">27</property>
  <property name="kdenlive:file_size">481279</property>
  <property name="kdenlive:file_hash">6b8e2fe9d9f4f2d1fc470f041456538e</property>
  <property name="kdenlive:audio_max0">226</property>
 </chain>
 <chain id="chain22" out="00:09:59.960">
  <property name="length">15000</property>
  <property name="eof">pause</property>
  <property name="resource">pic/logo/Screenshot 2023-08-10 at 17-00-01 Приложение для создания логотипов Получите свой собственный дизайн логотипа бесплатно.kra</property>
  <property name="mlt_service">qimage</property>
  <property name="ttl">25</property>
  <property name="meta.media.progressive">1</property>
  <property name="seekable">1</property>
  <property name="meta.media.width">300</property>
  <property name="meta.media.height">300</property>
  <property name="kdenlive:clipname"/>
  <property name="kdenlive:folderid">41</property>
  <property name="kdenlive:id">28</property>
  <property name="kdenlive:duration">00:10:00.000</property>
  <property name="kdenlive:clip_type">2</property>
  <property name="kdenlive:file_size">116362</property>
  <property name="kdenlive:file_hash">cdc5fca18b36ac93a3f2025ebd788b8f</property>
 </chain>
 <producer id="producer1" in="00:00:00.000" out="00:00:04.960">
  <property name="length">00:00:05.000</property>
  <property name="eof">pause</property>
  <property name="resource">0xffffffff</property>
  <property name="aspect_ratio">1</property>
  <property name="mlt_service">color</property>
  <property name="kdenlive:clipname">Color Clip</property>
  <property name="kdenlive:duration">00:00:05:00</property>
  <property name="kdenlive:folderid">41</property>
  <property name="kdenlive:id">30</property>
  <property name="mlt_image_format">rgb</property>
  <property name="kdenlive:clip_type">2</property>
  <property name="kdenlive:file_hash">039b56a692cd66eefeea44a17539e5a2</property>
 </producer>
 <producer id="producer6" in="00:00:00.000" out="00:00:04.960">
  <property name="length">125</property>
  <property name="eof">pause</property>
  <property name="resource"/>
  <property name="meta.media.progressive">1</property>
  <property name="aspect_ratio">1</property>
  <property name="seekable">1</property>
  <property name="mlt_service">kdenlivetitle</property>
  <property name="kdenlive:duration">00:00:05:00</property>
  <property name="kdenlive:clipname">Представляет</property>
  <property name="xmldata">&lt;kdenlivetitle duration="125" LC_NUMERIC="C" width="1920" height="1080" out="124">&#xd;&#xd;&#xd;&#xd;&#xd;&#xd;
 &lt;item type="QGraphicsTextItem" z-index="0">&#xd;&#xd;&#xd;&#xd;&#xd;&#xd;
  &lt;position x="12" y="818">&#xd;&#xd;&#xd;&#xd;&#xd;&#xd;
   &lt;transform>1,0,0,0,1,0,0,0,1&lt;/transform>&#xd;&#xd;&#xd;&#xd;&#xd;&#xd;
  &lt;/position>&#xd;&#xd;&#xd;&#xd;&#xd;&#xd;
  &lt;content line-spacing="0" shadow="0;#64000000;3;3;3" font-underline="0" box-height="165" font-outline-color="0,0,0,255" font="DejaVu Sans" letter-spacing="14" font-pixel-size="144" font-italic="0" typewriter="0;2;1;0;0" alignment="4" font-weight="25" font-outline="0" box-width="1896" font-color="45,40,63,255">Представляет&lt;/content>&#xd;&#xd;&#xd;&#xd;&#xd;&#xd;
 &lt;/item>&#xd;&#xd;&#xd;&#xd;&#xd;&#xd;
 &lt;startviewport rect="0,0,1920,1080"/>&#xd;&#xd;&#xd;&#xd;&#xd;&#xd;
 &lt;endviewport rect="0,0,1920,1080"/>&#xd;&#xd;&#xd;&#xd;&#xd;&#xd;
 &lt;background color="0,0,0,0"/>&#xd;&#xd;&#xd;&#xd;&#xd;&#xd;
&lt;/kdenlivetitle>&#xd;&#xd;&#xd;&#xd;&#xd;&#xd;
</property>
  <property name="kdenlive:folderid">41</property>
  <property name="kdenlive:id">31</property>
  <property name="kdenlive:clip_type">2</property>
  <property name="kdenlive:file_hash">f769bbea43ecfc6932aec50f85e90664</property>
  <property name="force_reload">0</property>
  <property name="meta.media.width">1920</property>
  <property name="meta.media.height">1080</property>
 </producer>
 <producer id="producer7" in="00:00:00.000" out="00:00:04.960">
  <property name="length">125</property>
  <property name="eof">pause</property>
  <property name="resource"/>
  <property name="meta.media.progressive">1</property>
  <property name="aspect_ratio">1</property>
  <property name="seekable">1</property>
  <property name="mlt_service">kdenlivetitle</property>
  <property name="kdenlive:duration">00:00:05:00</property>
  <property name="kdenlive:clipname">Cool Trees</property>
  <property name="xmldata">&lt;kdenlivetitle duration="125" LC_NUMERIC="C" width="1920" height="1080" out="124">&#xd;&#xd;&#xd;&#xd;&#xd;&#xd;
 &lt;item type="QGraphicsTextItem" z-index="0">&#xd;&#xd;&#xd;&#xd;&#xd;&#xd;
  &lt;position x="600" y="457">&#xd;&#xd;&#xd;&#xd;&#xd;&#xd;
   &lt;transform>1,0,0,0,1,0,0,0,1&lt;/transform>&#xd;&#xd;&#xd;&#xd;&#xd;&#xd;
  &lt;/position>&#xd;&#xd;&#xd;&#xd;&#xd;&#xd;
  &lt;content line-spacing="0" shadow="0;#64000000;3;3;3" font-underline="0" box-height="165" font-outline-color="0,0,0,255" font="DejaVu Sans" letter-spacing="0" font-pixel-size="144" font-italic="0" typewriter="0;2;1;0;0" alignment="1" font-weight="75" font-outline="0" box-width="720" font-color="45,40,63,255">Cool Trees&lt;/content>&#xd;&#xd;&#xd;&#xd;&#xd;&#xd;
 &lt;/item>&#xd;&#xd;&#xd;&#xd;&#xd;&#xd;
 &lt;startviewport rect="0,0,1920,1080"/>&#xd;&#xd;&#xd;&#xd;&#xd;&#xd;
 &lt;endviewport rect="0,0,1920,1080"/>&#xd;&#xd;&#xd;&#xd;&#xd;&#xd;
 &lt;background color="0,0,0,0"/>&#xd;&#xd;&#xd;&#xd;&#xd;&#xd;
&lt;/kdenlivetitle>&#xd;&#xd;&#xd;&#xd;&#xd;&#xd;
</property>
  <property name="kdenlive:folderid">41</property>
  <property name="kdenlive:id">32</property>
  <property name="kdenlive:clip_type">2</property>
  <property name="kdenlive:file_hash">76a16f8a55e559b8ae292d0aef7a5fee</property>
  <property name="force_reload">0</property>
  <property name="meta.media.width">1920</property>
  <property name="meta.media.height">1080</property>
 </producer>
 <chain id="chain23" out="00:00:00.920">
  <property name="length">24</property>
  <property name="eof">pause</property>
  <property name="resource">pic/gif/attacks/Hammer_attatcks_N8dO.gif</property>
  <property name="mlt_service">avformat-novalidate</property>
  <property name="meta.media.nb_streams">1</property>
  <property name="meta.media.0.stream.type">video</property>
  <property name="meta.media.0.stream.frame_rate">13.1667</property>
  <property name="meta.media.0.stream.sample_aspect_ratio">0</property>
  <property name="meta.media.0.codec.width">109</property>
  <property name="meta.media.0.codec.height">110</property>
  <property name="meta.media.0.codec.rotate">0</property>
  <property name="meta.media.0.codec.pix_fmt">bgra</property>
  <property name="meta.media.0.codec.sample_aspect_ratio">0</property>
  <property name="meta.media.0.codec.colorspace">601</property>
  <property name="meta.media.0.codec.name">gif</property>
  <property name="meta.media.0.codec.long_name">GIF (Graphics Interchange Format)</property>
  <property name="meta.media.0.codec.bit_rate">0</property>
  <property name="seekable">1</property>
  <property name="meta.media.sample_aspect_num">1</property>
  <property name="meta.media.sample_aspect_den">1</property>
  <property name="audio_index">-1</property>
  <property name="video_index">0</property>
  <property name="meta.media.frame_rate_num">79</property>
  <property name="meta.media.frame_rate_den">6</property>
  <property name="meta.media.colorspace">601</property>
  <property name="meta.media.color_trc">2</property>
  <property name="meta.media.has_b_frames">0</property>
  <property name="meta.media.width">109</property>
  <property name="meta.media.height">110</property>
  <property name="meta.media.color_range">mpeg</property>
  <property name="kdenlive:clipname"/>
  <property name="meta.media.variable_frame_rate">1</property>
  <property name="meta.media.top_field_first">0</property>
  <property name="meta.media.progressive">1</property>
  <property name="kdenlive:clip_type">2</property>
  <property name="kdenlive:folderid">22</property>
  <property name="kdenlive:id">33</property>
  <property name="mute_on_pause">0</property>
  <property name="kdenlive:file_size">6983</property>
  <property name="kdenlive:file_hash">bc8237382532371c141412f7b8c3c7d5</property>
 </chain>
 <chain id="chain39" out="00:00:25.760">
  <property name="length">645</property>
  <property name="eof">pause</property>
  <property name="resource">video/tree_root_2_2023-08-11 09-32-17.mp4</property>
  <property name="mlt_service">avformat-novalidate</property>
  <property name="meta.media.nb_streams">2</property>
  <property name="meta.media.0.stream.type">video</property>
  <property name="meta.media.0.stream.frame_rate">60</property>
  <property name="meta.media.0.stream.sample_aspect_ratio">0</property>
  <property name="meta.media.0.codec.width">1360</property>
  <property name="meta.media.0.codec.height">768</property>
  <property name="meta.media.0.codec.rotate">0</property>
  <property name="meta.media.0.codec.pix_fmt">yuv420p</property>
  <property name="meta.media.0.codec.sample_aspect_ratio">1</property>
  <property name="meta.media.0.codec.colorspace">709</property>
  <property name="meta.media.0.codec.color_trc">1</property>
  <property name="meta.media.0.codec.name">h264</property>
  <property name="meta.media.0.codec.long_name">H.264 / AVC / MPEG-4 AVC / MPEG-4 part 10</property>
  <property name="meta.media.0.codec.bit_rate">2500364</property>
  <property name="meta.attr.0.stream.handler_name.markup">VideoHandler</property>
  <property name="meta.attr.0.stream.vendor_id.markup">[0][0][0][0]</property>
  <property name="meta.media.1.stream.type">audio</property>
  <property name="meta.media.1.codec.sample_fmt">fltp</property>
  <property name="meta.media.1.codec.sample_rate">48000</property>
  <property name="meta.media.1.codec.channels">2</property>
  <property name="meta.media.1.codec.name">aac</property>
  <property name="meta.media.1.codec.long_name">AAC (Advanced Audio Coding)</property>
  <property name="meta.media.1.codec.bit_rate">2268</property>
  <property name="meta.attr.1.stream.handler_name.markup">SoundHandler</property>
  <property name="meta.attr.1.stream.vendor_id.markup">[0][0][0][0]</property>
  <property name="meta.attr.major_brand.markup">isom</property>
  <property name="meta.attr.minor_version.markup">512</property>
  <property name="meta.attr.compatible_brands.markup">isomiso2avc1mp41</property>
  <property name="meta.attr.encoder.markup">Lavf60.3.100</property>
  <property name="seekable">1</property>
  <property name="meta.media.sample_aspect_num">1</property>
  <property name="meta.media.sample_aspect_den">1</property>
  <property name="audio_index">1</property>
  <property name="video_index">0</property>
  <property name="meta.media.frame_rate_num">60</property>
  <property name="meta.media.frame_rate_den">1</property>
  <property name="meta.media.colorspace">709</property>
  <property name="meta.media.color_trc">1</property>
  <property name="meta.media.has_b_frames">1</property>
  <property name="meta.media.width">1360</property>
  <property name="meta.media.height">768</property>
  <property name="meta.media.color_range">mpeg</property>
  <property name="kdenlive:clipname"/>
  <property name="meta.media.top_field_first">0</property>
  <property name="meta.media.progressive">1</property>
  <property name="kdenlive:clip_type">0</property>
  <property name="kdenlive:folderid">54</property>
  <property name="kdenlive:id">34</property>
  <property name="mute_on_pause">0</property>
  <property name="kdenlive:file_size">8109540</property>
  <property name="kdenlive:file_hash">896c0f6fb9ff00c517badab59a0b6d12</property>
  <property name="kdenlive:audio_max1">0</property>
 </chain>
 <chain id="chain33" out="00:02:02.000">
  <property name="length">3051</property>
  <property name="eof">pause</property>
  <property name="resource">music/KLM_Music_Hybrid_Epic_Trailer_www.lightaudio.ru.mp3</property>
  <property name="mlt_service">avformat</property>
  <property name="meta.media.nb_streams">1</property>
  <property name="meta.media.0.stream.type">audio</property>
  <property name="meta.media.0.codec.sample_fmt">fltp</property>
  <property name="meta.media.0.codec.sample_rate">44100</property>
  <property name="meta.media.0.codec.channels">2</property>
  <property name="meta.media.0.codec.name">mp3float</property>
  <property name="meta.media.0.codec.long_name">MP3 (MPEG audio layer 3)</property>
  <property name="meta.media.0.codec.bit_rate">320000</property>
  <property name="meta.attr.encoder.markup">Lavf58.45.100</property>
  <property name="seekable">1</property>
  <property name="audio_index">0</property>
  <property name="video_index">-1</property>
  <property name="kdenlive:clipname"/>
  <property name="kdenlive:clip_type">1</property>
  <property name="kdenlive:folderid">37</property>
  <property name="kdenlive:id">35</property>
  <property name="kdenlive:file_size">4881808</property>
  <property name="kdenlive:file_hash">d26741298ca3b5209b3237695161c216</property>
  <property name="kdenlive:audio_max0">238</property>
 </chain>
 <chain id="chain34" out="00:00:10.920">
  <property name="length">274</property>
  <property name="eof">pause</property>
  <property name="resource">music/voice/duhi_lesa.wav</property>
  <property name="mlt_service">avformat</property>
  <property name="meta.media.nb_streams">1</property>
  <property name="meta.media.0.stream.type">audio</property>
  <property name="meta.media.0.codec.sample_fmt">s16</property>
  <property name="meta.media.0.codec.sample_rate">44100</property>
  <property name="meta.media.0.codec.channels">2</property>
  <property name="meta.media.0.codec.name">pcm_s16le</property>
  <property name="meta.media.0.codec.long_name">PCM signed 16-bit little-endian</property>
  <property name="meta.media.0.codec.bit_rate">1411200</property>
  <property name="seekable">1</property>
  <property name="audio_index">0</property>
  <property name="video_index">-1</property>
  <property name="kdenlive:clipname"/>
  <property name="kdenlive:clip_type">1</property>
  <property name="kdenlive:folderid">47</property>
  <property name="kdenlive:id">36</property>
  <property name="kdenlive:file_size">1934960</property>
  <property name="kdenlive:file_hash">ff488886d9d2060a7e428fa9a85bd420</property>
  <property name="kdenlive:audio_max0">186</property>
 </chain>
 <chain id="chain36" out="00:00:07.160">
  <property name="length">180</property>
  <property name="eof">pause</property>
  <property name="resource">music/voice/no_mirnaya_zhizn.wav</property>
  <property name="mlt_service">avformat</property>
  <property name="meta.media.nb_streams">1</property>
  <property name="meta.media.0.stream.type">audio</property>
  <property name="meta.media.0.codec.sample_fmt">s16</property>
  <property name="meta.media.0.codec.sample_rate">44100</property>
  <property name="meta.media.0.codec.channels">2</property>
  <property name="meta.media.0.codec.name">pcm_s16le</property>
  <property name="meta.media.0.codec.long_name">PCM signed 16-bit little-endian</property>
  <property name="meta.media.0.codec.bit_rate">1411200</property>
  <property name="seekable">1</property>
  <property name="audio_index">0</property>
  <property name="video_index">-1</property>
  <property name="kdenlive:clipname"/>
  <property name="kdenlive:clip_type">1</property>
  <property name="kdenlive:folderid">47</property>
  <property name="kdenlive:id">38</property>
  <property name="kdenlive:file_size">1267428</property>
  <property name="kdenlive:file_hash">850dd02c1bf237248e903e78041ce991</property>
  <property name="kdenlive:audio_max0">189</property>
 </chain>
 <chain id="chain37" out="00:00:07.600">
  <property name="length">191</property>
  <property name="eof">pause</property>
  <property name="resource">music/voice/no_boginya_lesa.wav</property>
  <property name="mlt_service">avformat</property>
  <property name="meta.media.nb_streams">1</property>
  <property name="meta.media.0.stream.type">audio</property>
  <property name="meta.media.0.codec.sample_fmt">s16</property>
  <property name="meta.media.0.codec.sample_rate">44100</property>
  <property name="meta.media.0.codec.channels">2</property>
  <property name="meta.media.0.codec.name">pcm_s16le</property>
  <property name="meta.media.0.codec.long_name">PCM signed 16-bit little-endian</property>
  <property name="meta.media.0.codec.bit_rate">1411200</property>
  <property name="seekable">1</property>
  <property name="audio_index">0</property>
  <property name="video_index">-1</property>
  <property name="kdenlive:clipname"/>
  <property name="kdenlive:clip_type">1</property>
  <property name="kdenlive:folderid">47</property>
  <property name="kdenlive:id">39</property>
  <property name="kdenlive:file_size">1348088</property>
  <property name="kdenlive:file_hash">152e07c1810dff404354aef53f4831b5</property>
  <property name="kdenlive:audio_max0">178</property>
 </chain>
 <chain id="chain38" out="00:00:03.600">
  <property name="length">91</property>
  <property name="eof">pause</property>
  <property name="resource">music/voice/dazhe_pni_pytalis.wav</property>
  <property name="mlt_service">avformat</property>
  <property name="meta.media.nb_streams">1</property>
  <property name="meta.media.0.stream.type">audio</property>
  <property name="meta.media.0.codec.sample_fmt">s16</property>
  <property name="meta.media.0.codec.sample_rate">44100</property>
  <property name="meta.media.0.codec.channels">2</property>
  <property name="meta.media.0.codec.name">pcm_s16le</property>
  <property name="meta.media.0.codec.long_name">PCM signed 16-bit little-endian</property>
  <property name="meta.media.0.codec.bit_rate">1411200</property>
  <property name="seekable">1</property>
  <property name="audio_index">0</property>
  <property name="video_index">-1</property>
  <property name="kdenlive:clipname"/>
  <property name="kdenlive:clip_type">1</property>
  <property name="kdenlive:folderid">47</property>
  <property name="kdenlive:id">42</property>
  <property name="kdenlive:file_size">639020</property>
  <property name="kdenlive:file_hash">d532af3cba8896db0df593d746b88ffb</property>
  <property name="kdenlive:audio_max0">187</property>
 </chain>
 <chain id="chain40" out="00:00:10.360">
  <property name="length">260</property>
  <property name="eof">pause</property>
  <property name="resource">/mnt/sda3/0today/buisnes/game_way_fact/github/trailer/CoolTrees/trailer-blеnder/0001-0250.avi</property>
  <property name="mlt_service">avformat-novalidate</property>
  <property name="meta.media.nb_streams">1</property>
  <property name="meta.media.0.stream.type">video</property>
  <property name="meta.media.0.stream.frame_rate">24.0004</property>
  <property name="meta.media.0.stream.sample_aspect_ratio">0</property>
  <property name="meta.media.0.codec.width">1920</property>
  <property name="meta.media.0.codec.height">1080</property>
  <property name="meta.media.0.codec.rotate">0</property>
  <property name="meta.media.0.codec.pix_fmt">yuvj422p</property>
  <property name="meta.media.0.codec.sample_aspect_ratio">0</property>
  <property name="meta.media.0.codec.colorspace">601</property>
  <property name="meta.media.0.codec.name">mjpeg</property>
  <property name="meta.media.0.codec.long_name">MJPEG (Motion JPEG)</property>
  <property name="meta.media.0.codec.bit_rate">26004103</property>
  <property name="seekable">1</property>
  <property name="meta.media.sample_aspect_num">1</property>
  <property name="meta.media.sample_aspect_den">1</property>
  <property name="audio_index">-1</property>
  <property name="video_index">0</property>
  <property name="meta.media.frame_rate_num">500000</property>
  <property name="meta.media.frame_rate_den">20833</property>
  <property name="meta.media.colorspace">601</property>
  <property name="meta.media.color_trc">2</property>
  <property name="meta.media.has_b_frames">0</property>
  <property name="meta.media.width">1920</property>
  <property name="meta.media.height">1080</property>
  <property name="meta.media.color_range">full</property>
  <property name="kdenlive:clipname"/>
  <property name="meta.media.top_field_first">0</property>
  <property name="meta.media.progressive">1</property>
  <property name="kdenlive:clip_type">2</property>
  <property name="kdenlive:folderid">58</property>
  <property name="kdenlive:id">43</property>
  <property name="mute_on_pause">0</property>
  <property name="kdenlive:file_size">33738576</property>
  <property name="kdenlive:file_hash">5cd9b36fc56ac022f73d8fcd4711d5f4</property>
 </chain>
 <chain id="chain41" out="00:00:10.080">
  <property name="length">253</property>
  <property name="eof">pause</property>
  <property name="resource">music/voice/s_davnih_vremen.wav</property>
  <property name="mlt_service">avformat</property>
  <property name="meta.media.nb_streams">1</property>
  <property name="meta.media.0.stream.type">audio</property>
  <property name="meta.media.0.codec.sample_fmt">s16</property>
  <property name="meta.media.0.codec.sample_rate">44100</property>
  <property name="meta.media.0.codec.channels">2</property>
  <property name="meta.media.0.codec.name">pcm_s16le</property>
  <property name="meta.media.0.codec.long_name">PCM signed 16-bit little-endian</property>
  <property name="meta.media.0.codec.bit_rate">1411200</property>
  <property name="seekable">1</property>
  <property name="audio_index">0</property>
  <property name="video_index">-1</property>
  <property name="kdenlive:clipname"/>
  <property name="kdenlive:clip_type">1</property>
  <property name="kdenlive:folderid">47</property>
  <property name="kdenlive:id">44</property>
  <property name="kdenlive:file_size">1783184</property>
  <property name="kdenlive:file_hash">1f804770ae78aa8e21a798005cad52f0</property>
  <property name="kdenlive:audio_max0">206</property>
 </chain>
 <chain id="chain42" out="00:00:16.680">
  <property name="length">418</property>
  <property name="eof">pause</property>
  <property name="resource">video/14.00gameplay_cool_trees_Seasons-0001.mp4.mp4</property>
  <property name="mlt_service">avformat-novalidate</property>
  <property name="meta.media.nb_streams">2</property>
  <property name="meta.media.0.stream.type">video</property>
  <property name="meta.media.0.stream.frame_rate">30</property>
  <property name="meta.media.0.stream.sample_aspect_ratio">1</property>
  <property name="meta.media.0.codec.width">1754</property>
  <property name="meta.media.0.codec.height">914</property>
  <property name="meta.media.0.codec.rotate">0</property>
  <property name="meta.media.0.codec.pix_fmt">yuv420p</property>
  <property name="meta.media.0.codec.sample_aspect_ratio">1</property>
  <property name="meta.media.0.codec.colorspace">709</property>
  <property name="meta.media.0.codec.name">h264</property>
  <property name="meta.media.0.codec.long_name">H.264 / AVC / MPEG-4 AVC / MPEG-4 part 10</property>
  <property name="meta.media.0.codec.bit_rate">2080631</property>
  <property name="meta.attr.0.stream.handler_name.markup">VideoHandler</property>
  <property name="meta.attr.0.stream.vendor_id.markup">[0][0][0][0]</property>
  <property name="meta.media.1.stream.type">audio</property>
  <property name="meta.media.1.codec.sample_fmt">fltp</property>
  <property name="meta.media.1.codec.sample_rate">44100</property>
  <property name="meta.media.1.codec.channels">2</property>
  <property name="meta.media.1.codec.name">aac</property>
  <property name="meta.media.1.codec.long_name">AAC (Advanced Audio Coding)</property>
  <property name="meta.media.1.codec.bit_rate">128564</property>
  <property name="meta.attr.1.stream.handler_name.markup">SoundHandler</property>
  <property name="meta.attr.1.stream.vendor_id.markup">[0][0][0][0]</property>
  <property name="meta.attr.major_brand.markup">isom</property>
  <property name="meta.attr.minor_version.markup">512</property>
  <property name="meta.attr.compatible_brands.markup">isomiso2avc1mp41</property>
  <property name="meta.attr.encoder.markup">Lavf58.76.100</property>
  <property name="seekable">1</property>
  <property name="meta.media.sample_aspect_num">1</property>
  <property name="meta.media.sample_aspect_den">1</property>
  <property name="audio_index">1</property>
  <property name="video_index">0</property>
  <property name="meta.media.frame_rate_num">30</property>
  <property name="meta.media.frame_rate_den">1</property>
  <property name="meta.media.colorspace">709</property>
  <property name="meta.media.color_trc">2</property>
  <property name="meta.media.has_b_frames">2</property>
  <property name="meta.media.width">1754</property>
  <property name="meta.media.height">914</property>
  <property name="meta.media.color_range">mpeg</property>
  <property name="kdenlive:clipname"/>
  <property name="meta.media.top_field_first">0</property>
  <property name="meta.media.progressive">1</property>
  <property name="kdenlive:clip_type">0</property>
  <property name="kdenlive:folderid">54</property>
  <property name="kdenlive:id">45</property>
  <property name="mute_on_pause">0</property>
  <property name="kdenlive:file_size">4603900</property>
  <property name="kdenlive:file_hash">df170f80d6f90f7ad923356219859fa6</property>
  <property name="kdenlive:audio_max1">249</property>
 </chain>
 <producer id="producer16" in="00:00:00.000" out="00:00:04.960">
  <property name="length">00:00:05.000</property>
  <property name="eof">pause</property>
  <property name="resource">pic/logo/cool_pools.png</property>
  <property name="ttl">25</property>
  <property name="aspect_ratio">1</property>
  <property name="meta.media.progressive">1</property>
  <property name="seekable">1</property>
  <property name="format">2</property>
  <property name="meta.media.width">420</property>
  <property name="meta.media.height">372</property>
  <property name="mlt_service">qimage</property>
  <property name="kdenlive:clipname"/>
  <property name="kdenlive:duration">00:00:05:00</property>
  <property name="kdenlive:folderid">41</property>
  <property name="kdenlive:id">46</property>
  <property name="kdenlive:clip_type">2</property>
  <property name="kdenlive:file_size">19538</property>
  <property name="kdenlive:file_hash">bde51e8ab440795fff85bd49967dd9a8</property>
 </producer>
 <producer id="producer3" in="00:00:00.000" out="00:00:04.960">
  <property name="length">00:00:05.000</property>
  <property name="eof">pause</property>
  <property name="resource">pic/logo/Screenshot 2023-08-10 at 17-00-01 Приложение для создания логотипов Получите свой собственный дизайн логотипа бесплатно.png</property>
  <property name="ttl">25</property>
  <property name="aspect_ratio">1</property>
  <property name="meta.media.progressive">1</property>
  <property name="seekable">1</property>
  <property name="format">2</property>
  <property name="meta.media.width">300</property>
  <property name="meta.media.height">300</property>
  <property name="mlt_service">qimage</property>
  <property name="kdenlive:clipname"/>
  <property name="kdenlive:duration">00:00:05:00</property>
  <property name="kdenlive:folderid">41</property>
  <property name="kdenlive:id">48</property>
  <property name="kdenlive:clip_type">2</property>
  <property name="kdenlive:file_size">18226</property>
  <property name="kdenlive:file_hash">3c2df20c3ce18fced97cb4959486601e</property>
 </producer>
 <producer id="producer0" in="00:00:00.000" out="00:21:57.880">
  <property name="length">2147483647</property>
  <property name="eof">continue</property>
  <property name="resource">black</property>
  <property name="aspect_ratio">1</property>
  <property name="mlt_service">color</property>
  <property name="kdenlive:playlistid">black_track</property>
  <property name="mlt_image_format">rgba</property>
  <property name="set.test_audio">0</property>
 </producer>
 <chain id="chain0" out="00:02:02.000">
  <property name="length">3051</property>
  <property name="eof">pause</property>
  <property name="resource">music/KLM_Music_Hybrid_Epic_Trailer_www.lightaudio.ru.mp3</property>
  <property name="mlt_service">avformat-novalidate</property>
  <property name="seekable">1</property>
  <property name="audio_index">0</property>
  <property name="video_index">-1</property>
  <property name="kdenlive:clipname"/>
  <property name="kdenlive:clip_type">1</property>
  <property name="kdenlive:folderid">-1</property>
  <property name="kdenlive:id">35</property>
  <property name="kdenlive:file_size">4881808</property>
  <property name="kdenlive:file_hash">d26741298ca3b5209b3237695161c216</property>
  <property name="kdenlive:audio_max0">238</property>
  <property name="meta.media.nb_streams">1</property>
  <property name="meta.media.0.stream.type">audio</property>
  <property name="meta.media.0.codec.sample_fmt">fltp</property>
  <property name="meta.media.0.codec.sample_rate">44100</property>
  <property name="meta.media.0.codec.channels">2</property>
  <property name="meta.media.0.codec.name">mp3float</property>
  <property name="meta.media.0.codec.long_name">MP3 (MPEG audio layer 3)</property>
  <property name="meta.media.0.codec.bit_rate">320000</property>
  <property name="meta.attr.encoder.markup">Lavf58.45.100</property>
  <property name="xml">was here</property>
  <property name="mute_on_pause">0</property>
  <property name="set.test_audio">0</property>
  <property name="set.test_image">1</property>
 </chain>
 <playlist id="playlist0">
  <property name="kdenlive:audio_track">1</property>
  <entry producer="chain0" in="00:00:04.160" out="00:02:02.000">
   <property name="kdenlive:id">35</property>
  </entry>
 </playlist>
 <playlist id="playlist1">
  <property name="kdenlive:audio_track">1</property>
 </playlist>
 <tractor id="tractor0" in="00:00:00.000" out="00:01:57.840">
  <property name="kdenlive:audio_track">1</property>
  <property name="kdenlive:trackheight">69</property>
  <property name="kdenlive:timeline_active">1</property>
  <property name="kdenlive:collapsed">0</property>
  <property name="kdenlive:thumbs_format"/>
  <property name="kdenlive:audio_rec"/>
  <track hide="both" producer="playlist0"/>
  <track hide="both" producer="playlist1"/>
  <filter id="filter0">
   <property name="window">75</property>
   <property name="max_gain">20dB</property>
   <property name="level">-10.242</property>
   <property name="mlt_service">volume</property>
   <property name="internal_added">237</property>
   <property name="disable">0</property>
  </filter>
  <filter id="filter1">
   <property name="channel">-1</property>
   <property name="mlt_service">panner</property>
   <property name="internal_added">237</property>
   <property name="start">0.5</property>
   <property name="disable">1</property>
  </filter>
  <filter id="filter2">
   <property name="iec_scale">0</property>
   <property name="mlt_service">audiolevel</property>
   <property name="dbpeak">1</property>
   <property name="disable">1</property>
  </filter>
 </tractor>
 <chain id="chain1" out="00:00:10.080">
  <property name="length">253</property>
  <property name="eof">pause</property>
  <property name="resource">music/voice/s_davnih_vremen.wav</property>
  <property name="mlt_service">avformat-novalidate</property>
  <property name="seekable">1</property>
  <property name="audio_index">0</property>
  <property name="video_index">-1</property>
  <property name="kdenlive:clipname"/>
  <property name="kdenlive:clip_type">1</property>
  <property name="kdenlive:folderid">47</property>
  <property name="kdenlive:id">44</property>
  <property name="kdenlive:file_size">1783184</property>
  <property name="kdenlive:file_hash">1f804770ae78aa8e21a798005cad52f0</property>
  <property name="kdenlive:audio_max0">203</property>
  <property name="meta.media.nb_streams">1</property>
  <property name="meta.media.0.stream.type">audio</property>
  <property name="meta.media.0.codec.sample_fmt">s16</property>
  <property name="meta.media.0.codec.sample_rate">44100</property>
  <property name="meta.media.0.codec.channels">2</property>
  <property name="meta.media.0.codec.name">pcm_s16le</property>
  <property name="meta.media.0.codec.long_name">PCM signed 16-bit little-endian</property>
  <property name="meta.media.0.codec.bit_rate">1411200</property>
  <property name="xml">was here</property>
  <property name="mute_on_pause">0</property>
  <property name="set.test_audio">0</property>
  <property name="set.test_image">1</property>
 </chain>
 <chain id="chain2" out="00:00:10.920">
  <property name="length">274</property>
  <property name="eof">pause</property>
  <property name="resource">music/voice/duhi_lesa.wav</property>
  <property name="mlt_service">avformat-novalidate</property>
  <property name="seekable">1</property>
  <property name="audio_index">0</property>
  <property name="video_index">-1</property>
  <property name="kdenlive:clipname"/>
  <property name="kdenlive:clip_type">1</property>
  <property name="kdenlive:folderid">-1</property>
  <property name="kdenlive:id">36</property>
  <property name="kdenlive:file_size">1934960</property>
  <property name="kdenlive:file_hash">ff488886d9d2060a7e428fa9a85bd420</property>
  <property name="kdenlive:audio_max0">186</property>
  <property name="meta.media.nb_streams">1</property>
  <property name="meta.media.0.stream.type">audio</property>
  <property name="meta.media.0.codec.sample_fmt">s16</property>
  <property name="meta.media.0.codec.sample_rate">44100</property>
  <property name="meta.media.0.codec.channels">2</property>
  <property name="meta.media.0.codec.name">pcm_s16le</property>
  <property name="meta.media.0.codec.long_name">PCM signed 16-bit little-endian</property>
  <property name="meta.media.0.codec.bit_rate">1411200</property>
  <property name="xml">was here</property>
  <property name="mute_on_pause">0</property>
  <property name="set.test_audio">0</property>
  <property name="set.test_image">1</property>
 </chain>
 <chain id="chain3" out="00:00:07.160">
  <property name="length">180</property>
  <property name="eof">pause</property>
  <property name="resource">music/voice/no_mirnaya_zhizn.wav</property>
  <property name="mlt_service">avformat-novalidate</property>
  <property name="seekable">1</property>
  <property name="audio_index">0</property>
  <property name="video_index">-1</property>
  <property name="kdenlive:clipname"/>
  <property name="kdenlive:clip_type">1</property>
  <property name="kdenlive:folderid">47</property>
  <property name="kdenlive:id">38</property>
  <property name="kdenlive:file_size">1267428</property>
  <property name="kdenlive:file_hash">850dd02c1bf237248e903e78041ce991</property>
  <property name="kdenlive:audio_max0">189</property>
  <property name="meta.media.nb_streams">1</property>
  <property name="meta.media.0.stream.type">audio</property>
  <property name="meta.media.0.codec.sample_fmt">s16</property>
  <property name="meta.media.0.codec.sample_rate">44100</property>
  <property name="meta.media.0.codec.channels">2</property>
  <property name="meta.media.0.codec.name">pcm_s16le</property>
  <property name="meta.media.0.codec.long_name">PCM signed 16-bit little-endian</property>
  <property name="meta.media.0.codec.bit_rate">1411200</property>
  <property name="xml">was here</property>
  <property name="mute_on_pause">0</property>
  <property name="set.test_audio">0</property>
  <property name="set.test_image">1</property>
 </chain>
 <chain id="chain4" out="00:00:03.600">
  <property name="length">91</property>
  <property name="eof">pause</property>
  <property name="resource">music/voice/dazhe_pni_pytalis.wav</property>
  <property name="mlt_service">avformat-novalidate</property>
  <property name="seekable">1</property>
  <property name="audio_index">0</property>
  <property name="video_index">-1</property>
  <property name="kdenlive:clipname"/>
  <property name="kdenlive:clip_type">1</property>
  <property name="kdenlive:folderid">47</property>
  <property name="kdenlive:id">42</property>
  <property name="kdenlive:file_size">639020</property>
  <property name="kdenlive:file_hash">d532af3cba8896db0df593d746b88ffb</property>
  <property name="kdenlive:audio_max0">187</property>
  <property name="meta.media.nb_streams">1</property>
  <property name="meta.media.0.stream.type">audio</property>
  <property name="meta.media.0.codec.sample_fmt">s16</property>
  <property name="meta.media.0.codec.sample_rate">44100</property>
  <property name="meta.media.0.codec.channels">2</property>
  <property name="meta.media.0.codec.name">pcm_s16le</property>
  <property name="meta.media.0.codec.long_name">PCM signed 16-bit little-endian</property>
  <property name="meta.media.0.codec.bit_rate">1411200</property>
  <property name="xml">was here</property>
  <property name="mute_on_pause">0</property>
  <property name="set.test_audio">0</property>
  <property name="set.test_image">1</property>
 </chain>
 <chain id="chain5" out="00:00:07.600">
  <property name="length">191</property>
  <property name="eof">pause</property>
  <property name="resource">music/voice/no_boginya_lesa.wav</property>
  <property name="mlt_service">avformat-novalidate</property>
  <property name="seekable">1</property>
  <property name="audio_index">0</property>
  <property name="video_index">-1</property>
  <property name="kdenlive:clipname"/>
  <property name="kdenlive:clip_type">1</property>
  <property name="kdenlive:folderid">47</property>
  <property name="kdenlive:id">39</property>
  <property name="kdenlive:file_size">1348088</property>
  <property name="kdenlive:file_hash">152e07c1810dff404354aef53f4831b5</property>
  <property name="kdenlive:audio_max0">178</property>
  <property name="meta.media.nb_streams">1</property>
  <property name="meta.media.0.stream.type">audio</property>
  <property name="meta.media.0.codec.sample_fmt">s16</property>
  <property name="meta.media.0.codec.sample_rate">44100</property>
  <property name="meta.media.0.codec.channels">2</property>
  <property name="meta.media.0.codec.name">pcm_s16le</property>
  <property name="meta.media.0.codec.long_name">PCM signed 16-bit little-endian</property>
  <property name="meta.media.0.codec.bit_rate">1411200</property>
  <property name="xml">was here</property>
  <property name="mute_on_pause">0</property>
  <property name="set.test_audio">0</property>
  <property name="set.test_image">1</property>
 </chain>
 <playlist id="playlist2">
  <property name="kdenlive:audio_track">1</property>
  <blank length="00:00:05.320"/>
  <entry producer="chain1" in="00:00:00.000" out="00:00:10.080">
   <property name="kdenlive:id">44</property>
  </entry>
  <entry producer="chain2" in="00:00:00.000" out="00:00:10.920">
   <property name="kdenlive:id">36</property>
  </entry>
  <blank length="00:00:03.480"/>
  <entry producer="chain3" in="00:00:00.000" out="00:00:07.160">
   <property name="kdenlive:id">38</property>
  </entry>
  <entry producer="chain4" in="00:00:00.000" out="00:00:03.600">
   <property name="kdenlive:id">42</property>
  </entry>
  <blank length="00:00:00.640"/>
  <entry producer="chain5" in="00:00:00.000" out="00:00:07.600">
   <property name="kdenlive:id">39</property>
  </entry>
 </playlist>
 <playlist id="playlist3">
  <property name="kdenlive:audio_track">1</property>
 </playlist>
 <tractor id="tractor1" in="00:00:00.000" out="00:00:48.960">
  <property name="kdenlive:audio_track">1</property>
  <property name="kdenlive:trackheight">67</property>
  <property name="kdenlive:timeline_active">1</property>
  <property name="kdenlive:collapsed">28</property>
  <property name="kdenlive:thumbs_format"/>
  <property name="kdenlive:audio_rec"/>
  <track hide="video" producer="playlist2"/>
  <track hide="video" producer="playlist3"/>
  <filter id="filter3">
   <property name="window">75</property>
   <property name="max_gain">20dB</property>
   <property name="level">0</property>
   <property name="mlt_service">volume</property>
   <property name="internal_added">237</property>
   <property name="disable">1</property>
  </filter>
  <filter id="filter4">
   <property name="channel">-1</property>
   <property name="mlt_service">panner</property>
   <property name="internal_added">237</property>
   <property name="start">0.5</property>
   <property name="disable">1</property>
  </filter>
  <filter id="filter5">
   <property name="iec_scale">0</property>
   <property name="mlt_service">audiolevel</property>
   <property name="dbpeak">1</property>
   <property name="disable">1</property>
  </filter>
 </tractor>
 <chain id="chain24" out="00:01:00.080">
  <property name="length">1503</property>
  <property name="eof">pause</property>
  <property name="resource">music/for_cool_ations_17eae64af67feb7.mp3</property>
  <property name="mlt_service">avformat-novalidate</property>
  <property name="seekable">1</property>
  <property name="audio_index">0</property>
  <property name="video_index">-1</property>
  <property name="kdenlive:clipname"/>
  <property name="kdenlive:clip_type">1</property>
  <property name="kdenlive:folderid">37</property>
  <property name="kdenlive:id">27</property>
  <property name="kdenlive:file_size">481279</property>
  <property name="kdenlive:file_hash">6b8e2fe9d9f4f2d1fc470f041456538e</property>
  <property name="kdenlive:audio_max0">226</property>
  <property name="meta.media.nb_streams">1</property>
  <property name="meta.media.0.stream.type">audio</property>
  <property name="meta.media.0.codec.sample_fmt">fltp</property>
  <property name="meta.media.0.codec.sample_rate">44100</property>
  <property name="meta.media.0.codec.channels">1</property>
  <property name="meta.media.0.codec.name">mp3float</property>
  <property name="meta.media.0.codec.long_name">MP3 (MPEG audio layer 3)</property>
  <property name="meta.media.0.codec.bit_rate">64000</property>
  <property name="meta.attr.0.stream.encoder.markup">LAME3.99r</property>
  <property name="xml">was here</property>
  <property name="mute_on_pause">0</property>
  <property name="set.test_audio">0</property>
  <property name="set.test_image">1</property>
 </chain>
 <playlist id="playlist4">
  <property name="kdenlive:audio_track">1</property>
  <entry producer="chain24" in="00:00:04.160" out="00:00:41.560">
   <property name="kdenlive:id">27</property>
  </entry>
 </playlist>
 <playlist id="playlist5">
  <property name="kdenlive:audio_track">1</property>
 </playlist>
 <tractor id="tractor2" in="00:00:00.000" out="00:00:37.400">
  <property name="kdenlive:audio_track">1</property>
  <property name="kdenlive:trackheight">67</property>
  <property name="kdenlive:timeline_active">1</property>
  <property name="kdenlive:collapsed">28</property>
  <property name="kdenlive:thumbs_format"/>
  <property name="kdenlive:audio_rec"/>
  <track hide="both" producer="playlist4"/>
  <track hide="both" producer="playlist5"/>
  <filter id="filter6">
   <property name="window">75</property>
   <property name="max_gain">20dB</property>
   <property name="level">-11.8891</property>
   <property name="mlt_service">volume</property>
   <property name="internal_added">237</property>
   <property name="disable">0</property>
  </filter>
  <filter id="filter7">
   <property name="channel">-1</property>
   <property name="mlt_service">panner</property>
   <property name="internal_added">237</property>
   <property name="start">0.5</property>
   <property name="disable">1</property>
  </filter>
  <filter id="filter8">
   <property name="iec_scale">0</property>
   <property name="mlt_service">audiolevel</property>
   <property name="dbpeak">1</property>
   <property name="disable">1</property>
  </filter>
 </tractor>
 <chain id="chain25" out="00:02:09.440">
  <property name="length">3237</property>
  <property name="eof">pause</property>
  <property name="resource">music/new_world_189470bcdbd7dd2.mp3</property>
  <property name="mlt_service">avformat-novalidate</property>
  <property name="seekable">1</property>
  <property name="audio_index">0</property>
  <property name="video_index">-1</property>
  <property name="kdenlive:clipname"/>
  <property name="kdenlive:clip_type">1</property>
  <property name="kdenlive:folderid">37</property>
  <property name="kdenlive:id">26</property>
  <property name="kdenlive:file_size">1035910</property>
  <property name="kdenlive:file_hash">5ce59b4c31ddec1e26cb2f557995a134</property>
  <property name="kdenlive:audio_max0">246</property>
  <property name="meta.media.nb_streams">1</property>
  <property name="meta.media.0.stream.type">audio</property>
  <property name="meta.media.0.codec.sample_fmt">fltp</property>
  <property name="meta.media.0.codec.sample_rate">44100</property>
  <property name="meta.media.0.codec.channels">1</property>
  <property name="meta.media.0.codec.name">mp3float</property>
  <property name="meta.media.0.codec.long_name">MP3 (MPEG audio layer 3)</property>
  <property name="meta.media.0.codec.bit_rate">64000</property>
  <property name="meta.attr.0.stream.encoder.markup">LAME3.99r</property>
  <property name="xml">was here</property>
  <property name="mute_on_pause">0</property>
  <property name="set.test_audio">0</property>
  <property name="set.test_image">1</property>
 </chain>
 <playlist id="playlist6">
  <property name="kdenlive:audio_track">1</property>
  <entry producer="chain25" in="00:00:04.160" out="00:00:53.120">
   <property name="kdenlive:id">26</property>
   <filter id="filter9">
    <property name="window">75</property>
    <property name="max_gain">20dB</property>
    <property name="level">00:00:04.160=0;00:00:35.760=0;00:00:36.960=-6</property>
    <property name="mlt_service">volume</property>
    <property name="kdenlive_id">volume</property>
    <property name="kdenlive:collapsed">0</property>
   </filter>
  </entry>
 </playlist>
 <playlist id="playlist7">
  <property name="kdenlive:audio_track">1</property>
 </playlist>
 <tractor id="tractor3" in="00:00:00.000" out="00:00:48.960">
  <property name="kdenlive:audio_track">1</property>
  <property name="kdenlive:trackheight">67</property>
  <property name="kdenlive:timeline_active">0</property>
  <property name="kdenlive:collapsed">28</property>
  <property name="kdenlive:thumbs_format"/>
  <property name="kdenlive:audio_rec"/>
  <track hide="video" producer="playlist6"/>
  <track hide="video" producer="playlist7"/>
  <filter id="filter10">
   <property name="window">75</property>
   <property name="max_gain">20dB</property>
   <property name="level">-5.61632</property>
   <property name="mlt_service">volume</property>
   <property name="internal_added">237</property>
   <property name="disable">0</property>
  </filter>
  <filter id="filter11">
   <property name="channel">-1</property>
   <property name="mlt_service">panner</property>
   <property name="internal_added">237</property>
   <property name="start">0.5</property>
   <property name="disable">1</property>
  </filter>
  <filter id="filter12">
   <property name="iec_scale">0</property>
   <property name="mlt_service">audiolevel</property>
   <property name="dbpeak">1</property>
   <property name="disable">1</property>
  </filter>
 </tractor>
 <chain id="chain28" out="00:00:20.360">
  <property name="length">510</property>
  <property name="eof">pause</property>
  <property name="resource">pic/gif/village/MRZ5ts9d.webm</property>
  <property name="mlt_service">avformat-novalidate</property>
  <property name="seekable">1</property>
  <property name="audio_index">-1</property>
  <property name="video_index">0</property>
  <property name="kdenlive:clipname"/>
  <property name="kdenlive:clip_type">2</property>
  <property name="kdenlive:folderid">7</property>
  <property name="kdenlive:id">13</property>
  <property name="mute_on_pause">0</property>
  <property name="kdenlive:file_size">14482736</property>
  <property name="kdenlive:file_hash">801d0d6b63abfb3170f6035017354b03</property>
  <property name="meta.media.nb_streams">1</property>
  <property name="meta.media.0.stream.type">video</property>
  <property name="meta.media.0.stream.frame_rate">25</property>
  <property name="meta.media.0.stream.sample_aspect_ratio">1</property>
  <property name="meta.media.0.codec.width">1920</property>
  <property name="meta.media.0.codec.height">1080</property>
  <property name="meta.media.0.codec.rotate">0</property>
  <property name="meta.media.0.codec.pix_fmt">yuv420p</property>
  <property name="meta.media.0.codec.sample_aspect_ratio">0</property>
  <property name="meta.media.0.codec.colorspace">709</property>
  <property name="meta.media.0.codec.color_trc">1</property>
  <property name="meta.media.0.codec.name">vp8</property>
  <property name="meta.media.0.codec.long_name">On2 VP8</property>
  <property name="meta.media.0.codec.bit_rate">0</property>
  <property name="meta.attr.0.stream.alpha_mode.markup">1</property>
  <property name="meta.attr.0.stream.DURATION.markup">00:00:20.400000000</property>
  <property name="meta.attr.ENCODER.markup">Lavf60.3.100</property>
  <property name="meta.media.sample_aspect_num">1</property>
  <property name="meta.media.sample_aspect_den">1</property>
  <property name="meta.media.frame_rate_num">25</property>
  <property name="meta.media.frame_rate_den">1</property>
  <property name="meta.media.colorspace">709</property>
  <property name="meta.media.color_trc">1</property>
  <property name="meta.media.has_b_frames">0</property>
  <property name="meta.media.width">1920</property>
  <property name="meta.media.height">1080</property>
  <property name="meta.media.color_range">mpeg</property>
  <property name="xml">was here</property>
  <property name="meta.media.top_field_first">0</property>
  <property name="meta.media.progressive">1</property>
  <property name="set.test_audio">1</property>
  <property name="set.test_image">0</property>
 </chain>
 <chain id="chain30" out="00:00:01.160">
  <property name="length">30</property>
  <property name="eof">pause</property>
  <property name="resource">pic/gif/village/afiny_99811d932e15119b27c00b8c18549e24.gif</property>
  <property name="mlt_service">avformat-novalidate</property>
  <property name="seekable">1</property>
  <property name="audio_index">-1</property>
  <property name="video_index">0</property>
  <property name="kdenlive:clipname"/>
  <property name="kdenlive:clip_type">2</property>
  <property name="kdenlive:folderid">7</property>
  <property name="kdenlive:id">17</property>
  <property name="mute_on_pause">0</property>
  <property name="kdenlive:file_size">237168</property>
  <property name="kdenlive:file_hash">1df4cdb8f6f57eb073015a21557c5cbd</property>
  <property name="meta.media.nb_streams">1</property>
  <property name="meta.media.0.stream.type">video</property>
  <property name="meta.media.0.stream.frame_rate">5</property>
  <property name="meta.media.0.stream.sample_aspect_ratio">0</property>
  <property name="meta.media.0.codec.width">960</property>
  <property name="meta.media.0.codec.height">600</property>
  <property name="meta.media.0.codec.rotate">0</property>
  <property name="meta.media.0.codec.pix_fmt">bgra</property>
  <property name="meta.media.0.codec.sample_aspect_ratio">0</property>
  <property name="meta.media.0.codec.colorspace">601</property>
  <property name="meta.media.0.codec.name">gif</property>
  <property name="meta.media.0.codec.long_name">GIF (Graphics Interchange Format)</property>
  <property name="meta.media.0.codec.bit_rate">0</property>
  <property name="meta.media.sample_aspect_num">1</property>
  <property name="meta.media.sample_aspect_den">1</property>
  <property name="meta.media.frame_rate_num">5</property>
  <property name="meta.media.frame_rate_den">1</property>
  <property name="meta.media.colorspace">601</property>
  <property name="meta.media.color_trc">2</property>
  <property name="meta.media.has_b_frames">0</property>
  <property name="meta.media.width">960</property>
  <property name="meta.media.height">600</property>
  <property name="meta.media.color_range">mpeg</property>
  <property name="xml">was here</property>
  <property name="meta.media.top_field_first">0</property>
  <property name="meta.media.progressive">1</property>
  <property name="set.test_audio">1</property>
  <property name="set.test_image">0</property>
 </chain>
 <chain id="chain6" out="00:00:10.360">
  <property name="length">260</property>
  <property name="eof">pause</property>
  <property name="resource">/mnt/sda3/0today/buisnes/game_way_fact/github/trailer/CoolTrees/trailer-blеnder/0001-0250.avi</property>
  <property name="mlt_service">avformat-novalidate</property>
  <property name="seekable">1</property>
  <property name="audio_index">-1</property>
  <property name="video_index">0</property>
  <property name="kdenlive:clipname"/>
  <property name="kdenlive:clip_type">2</property>
  <property name="kdenlive:folderid">58</property>
  <property name="kdenlive:id">43</property>
  <property name="mute_on_pause">0</property>
  <property name="kdenlive:file_size">33738576</property>
  <property name="kdenlive:file_hash">5cd9b36fc56ac022f73d8fcd4711d5f4</property>
  <property name="meta.media.nb_streams">1</property>
  <property name="meta.media.0.stream.type">video</property>
  <property name="meta.media.0.stream.frame_rate">24.0004</property>
  <property name="meta.media.0.stream.sample_aspect_ratio">0</property>
  <property name="meta.media.0.codec.width">1920</property>
  <property name="meta.media.0.codec.height">1080</property>
  <property name="meta.media.0.codec.rotate">0</property>
  <property name="meta.media.0.codec.pix_fmt">yuvj422p</property>
  <property name="meta.media.0.codec.sample_aspect_ratio">0</property>
  <property name="meta.media.0.codec.colorspace">601</property>
  <property name="meta.media.0.codec.name">mjpeg</property>
  <property name="meta.media.0.codec.long_name">MJPEG (Motion JPEG)</property>
  <property name="meta.media.0.codec.bit_rate">26004103</property>
  <property name="meta.media.sample_aspect_num">1</property>
  <property name="meta.media.sample_aspect_den">1</property>
  <property name="meta.media.frame_rate_num">500000</property>
  <property name="meta.media.frame_rate_den">20833</property>
  <property name="meta.media.colorspace">601</property>
  <property name="meta.media.color_trc">2</property>
  <property name="meta.media.has_b_frames">0</property>
  <property name="meta.media.width">1920</property>
  <property name="meta.media.height">1080</property>
  <property name="meta.media.color_range">full</property>
  <property name="xml">was here</property>
  <property name="meta.media.top_field_first">0</property>
  <property name="meta.media.progressive">1</property>
  <property name="set.test_audio">1</property>
  <property name="set.test_image">0</property>
 </chain>
 <chain id="chain7" out="00:00:16.680">
  <property name="length">418</property>
  <property name="eof">pause</property>
  <property name="resource">video/14.00gameplay_cool_trees_Seasons-0001.mp4.mp4</property>
  <property name="mlt_service">avformat-novalidate</property>
  <property name="seekable">1</property>
  <property name="audio_index">1</property>
  <property name="video_index">0</property>
  <property name="kdenlive:clipname"/>
  <property name="kdenlive:clip_type">0</property>
  <property name="kdenlive:folderid">54</property>
  <property name="kdenlive:id">45</property>
  <property name="mute_on_pause">0</property>
  <property name="kdenlive:file_size">4603900</property>
  <property name="kdenlive:file_hash">df170f80d6f90f7ad923356219859fa6</property>
  <property name="kdenlive:audio_max1">249</property>
  <property name="meta.media.nb_streams">2</property>
  <property name="meta.media.0.stream.type">video</property>
  <property name="meta.media.0.stream.frame_rate">30</property>
  <property name="meta.media.0.stream.sample_aspect_ratio">1</property>
  <property name="meta.media.0.codec.width">1754</property>
  <property name="meta.media.0.codec.height">914</property>
  <property name="meta.media.0.codec.rotate">0</property>
  <property name="meta.media.0.codec.pix_fmt">yuv420p</property>
  <property name="meta.media.0.codec.sample_aspect_ratio">1</property>
  <property name="meta.media.0.codec.colorspace">709</property>
  <property name="meta.media.0.codec.name">h264</property>
  <property name="meta.media.0.codec.long_name">H.264 / AVC / MPEG-4 AVC / MPEG-4 part 10</property>
  <property name="meta.media.0.codec.bit_rate">2080631</property>
  <property name="meta.attr.0.stream.handler_name.markup">VideoHandler</property>
  <property name="meta.attr.0.stream.vendor_id.markup">[0][0][0][0]</property>
  <property name="meta.media.1.stream.type">audio</property>
  <property name="meta.media.1.codec.sample_fmt">fltp</property>
  <property name="meta.media.1.codec.sample_rate">44100</property>
  <property name="meta.media.1.codec.channels">2</property>
  <property name="meta.media.1.codec.name">aac</property>
  <property name="meta.media.1.codec.long_name">AAC (Advanced Audio Coding)</property>
  <property name="meta.media.1.codec.bit_rate">128564</property>
  <property name="meta.attr.1.stream.handler_name.markup">SoundHandler</property>
  <property name="meta.attr.1.stream.vendor_id.markup">[0][0][0][0]</property>
  <property name="meta.attr.major_brand.markup">isom</property>
  <property name="meta.attr.minor_version.markup">512</property>
  <property name="meta.attr.compatible_brands.markup">isomiso2avc1mp41</property>
  <property name="meta.attr.encoder.markup">Lavf58.76.100</property>
  <property name="meta.media.sample_aspect_num">1</property>
  <property name="meta.media.sample_aspect_den">1</property>
  <property name="meta.media.frame_rate_num">30</property>
  <property name="meta.media.frame_rate_den">1</property>
  <property name="meta.media.colorspace">709</property>
  <property name="meta.media.color_trc">2</property>
  <property name="meta.media.has_b_frames">2</property>
  <property name="meta.media.width">1754</property>
  <property name="meta.media.height">914</property>
  <property name="meta.media.color_range">mpeg</property>
  <property name="xml">was here</property>
  <property name="meta.media.top_field_first">0</property>
  <property name="meta.media.progressive">1</property>
  <property name="set.test_audio">1</property>
  <property name="set.test_image">0</property>
 </chain>
 <producer id="producer4" in="00:00:00.000" out="00:00:03.560">
  <property name="length">90</property>
  <property name="eof">pause</property>
  <property name="resource">2.568209:pic/gif/attacks/attack_SxQ.gif</property>
  <property name="aspect_ratio">1</property>
  <property name="meta.media.nb_streams">1</property>
  <property name="meta.media.0.stream.type">video</property>
  <property name="meta.media.0.stream.frame_rate">33.5664</property>
  <property name="meta.media.0.stream.sample_aspect_ratio">0</property>
  <property name="meta.media.0.codec.width">1221</property>
  <property name="meta.media.0.codec.height">660</property>
  <property name="meta.media.0.codec.rotate">0</property>
  <property name="meta.media.0.codec.pix_fmt">bgra</property>
  <property name="meta.media.0.codec.sample_aspect_ratio">0</property>
  <property name="meta.media.0.codec.colorspace">709</property>
  <property name="meta.media.0.codec.name">gif</property>
  <property name="meta.media.0.codec.long_name">GIF (Graphics Interchange Format)</property>
  <property name="meta.media.0.codec.bit_rate">0</property>
  <property name="seekable">1</property>
  <property name="meta.media.sample_aspect_num">1</property>
  <property name="meta.media.sample_aspect_den">1</property>
  <property name="audio_index">-1</property>
  <property name="video_index">0</property>
  <property name="warp_speed">2.56821</property>
  <property name="warp_resource">pic/gif/attacks/attack_SxQ.gif</property>
  <property name="mlt_service">timewarp</property>
  <property name="set.test_audio">1</property>
  <property name="set.test_image">0</property>
  <property name="kdenlive:id">18</property>
  <property name="warp_pitch">0</property>
  <property name="meta.media.frame_rate_num">4800</property>
  <property name="meta.media.frame_rate_den">143</property>
  <property name="meta.media.colorspace">709</property>
  <property name="meta.media.color_trc">2</property>
  <property name="meta.media.has_b_frames">0</property>
  <property name="meta.media.width">1221</property>
  <property name="meta.media.height">660</property>
  <property name="meta.media.color_range">mpeg</property>
  <property name="meta.media.variable_frame_rate">1</property>
  <property name="meta.media.top_field_first">0</property>
  <property name="meta.media.progressive">1</property>
 </producer>
 <producer id="producer8" in="00:00:00.000" out="00:00:01.160">
  <property name="length">30</property>
  <property name="eof">pause</property>
  <property name="resource">pic/gif/tree_groved.gif</property>
  <property name="audio_index">-1</property>
  <property name="video_index">0</property>
  <property name="mute_on_pause">0</property>
  <property name="mlt_service">avformat-novalidate</property>
  <property name="seekable">1</property>
  <property name="aspect_ratio">1</property>
  <property name="kdenlive:clipname"/>
  <property name="kdenlive:folderid">14</property>
  <property name="kdenlive:id">3</property>
  <property name="kdenlive:file_size">309902</property>
  <property name="kdenlive:file_hash">ad72e2a3a4fe286197424e1777eac9ea</property>
  <property name="kdenlive:clip_type">2</property>
  <property name="xml">was here</property>
  <property name="meta.media.nb_streams">1</property>
  <property name="meta.media.0.stream.type">video</property>
  <property name="meta.media.0.stream.frame_rate">6.66667</property>
  <property name="meta.media.0.stream.sample_aspect_ratio">0</property>
  <property name="meta.media.0.codec.width">419</property>
  <property name="meta.media.0.codec.height">578</property>
  <property name="meta.media.0.codec.rotate">0</property>
  <property name="meta.media.0.codec.frame_rate">100</property>
  <property name="meta.media.0.codec.pix_fmt">bgra</property>
  <property name="meta.media.0.codec.sample_aspect_ratio">0</property>
  <property name="meta.media.0.codec.colorspace">601</property>
  <property name="meta.media.0.codec.name">gif</property>
  <property name="meta.media.0.codec.long_name">GIF (Graphics Interchange Format)</property>
  <property name="meta.media.0.codec.bit_rate">0</property>
  <property name="meta.media.sample_aspect_num">1</property>
  <property name="meta.media.sample_aspect_den">1</property>
  <property name="meta.media.frame_rate_num">20</property>
  <property name="meta.media.frame_rate_den">3</property>
  <property name="meta.media.colorspace">601</property>
  <property name="meta.media.color_trc">2</property>
  <property name="meta.media.has_b_frames">0</property>
  <property name="meta.media.width">419</property>
  <property name="meta.media.height">578</property>
  <property name="meta.media.color_range">mpeg</property>
  <property name="meta.media.top_field_first">0</property>
  <property name="meta.media.progressive">1</property>
  <property name="set.test_audio">1</property>
  <property name="set.test_image">0</property>
  <property name="format">2</property>
 </producer>
 <playlist id="playlist8">
  <entry producer="producer1" in="00:00:00.000" out="00:00:04.960">
   <property name="kdenlive:id">30</property>
  </entry>
  <blank length="00:00:07.680"/>
  <entry producer="chain28" in="00:00:00.000" out="00:00:11.560">
   <property name="kdenlive:id">13</property>
   <property name="kdenlive:activeeffect">0</property>
   <filter id="filter13">
    <property name="mlt_service">avfilter.lut3d</property>
    <property name="kdenlive_id">avfilter.lut3d</property>
    <property name="av.file">/tmp/.mount_kdenlivP9v37/usr/share/kdenlive/luts/TEAL_ORANGE.cube</property>
    <property name="av.interp">tetrahedral</property>
    <property name="kdenlive:collapsed">0</property>
   </filter>
   <filter id="filter14">
    <property name="rotate_center">1</property>
    <property name="mlt_service">qtblend</property>
    <property name="kdenlive_id">qtblend</property>
    <property name="rect">00:00:00.000=-2569 -2047 7680 4320 1.000000;00:00:02.480=-2569 -2047 7680 4320 1.000000;00:00:11.560=-528 -297 2976 1674 1.000000</property>
    <property name="rotation">00:00:00.000=0;00:00:02.480=0;00:00:11.560=0</property>
    <property name="compositing">0</property>
    <property name="distort">0</property>
    <property name="kdenlive:collapsed">0</property>
    <property name="disable">0</property>
   </filter>
  </entry>
  <blank length="00:00:03.680"/>
  <entry producer="chain30" in="00:00:00.000" out="00:00:00.280">
   <property name="kdenlive:id">17</property>
   <property name="kdenlive:activeeffect">0</property>
   <filter id="filter15">
    <property name="mlt_service">avfilter.lut3d</property>
    <property name="kdenlive_id">avfilter.lut3d</property>
    <property name="av.file">/tmp/.mount_kdenlivP9v37/usr/share/kdenlive/luts/TEAL_ORANGE.cube</property>
    <property name="av.interp">tetrahedral</property>
    <property name="kdenlive:collapsed">0</property>
   </filter>
  </entry>
  <blank length="00:00:01.600"/>
  <entry producer="chain6" in="00:00:09.840" out="00:00:10.360">
   <property name="kdenlive:id">43</property>
   <filter id="filter16">
    <property name="rotate_center">1</property>
    <property name="mlt_service">qtblend</property>
    <property name="kdenlive_id">qtblend</property>
    <property name="rect">00:00:09.840=-8640 -4860 19200 10800 1.000000;00:00:10.360=-3840 -2160 9600 5400 1.000000</property>
    <property name="rotation">00:00:09.840=0;00:00:10.360=0</property>
    <property name="compositing">0</property>
    <property name="distort">0</property>
    <property name="kdenlive:collapsed">0</property>
   </filter>
  </entry>
  <entry producer="chain6" in="00:00:09.840" out="00:00:10.360">
   <property name="kdenlive:id">43</property>
   <filter id="filter17">
    <property name="rotate_center">1</property>
    <property name="mlt_service">qtblend</property>
    <property name="kdenlive_id">qtblend</property>
    <property name="rect">00:00:09.840=-3840 -2160 9600 5400 1.000000;00:00:10.360=0 0 1920 1080 1.000000</property>
    <property name="rotation">00:00:09.840=0;00:00:10.360=0</property>
    <property name="compositing">0</property>
    <property name="distort">0</property>
    <property name="kdenlive:collapsed">0</property>
   </filter>
  </entry>
  <entry producer="chain6" in="00:00:09.840" out="00:00:10.200">
   <property name="kdenlive:id">43</property>
  </entry>
  <blank length="00:00:01.520"/>
  <entry producer="chain7" in="00:00:02.200" out="00:00:04.800">
   <property name="kdenlive:id">45</property>
   <property name="kdenlive:activeeffect">-1</property>
  </entry>
  <blank length="00:00:02.880"/>
  <entry producer="producer4" in="00:00:00.000" out="00:00:01.160">
   <property name="kdenlive:id">18</property>
  </entry>
  <entry producer="producer8" in="00:00:00.000" out="00:00:01.160">
   <property name="kdenlive:id">3</property>
   <property name="kdenlive:activeeffect">-1</property>
  </entry>
  <entry producer="producer8" in="00:00:00.000" out="00:00:01.160">
   <property name="kdenlive:id">3</property>
  </entry>
  <entry producer="producer8" in="00:00:00.000" out="00:00:01.160">
   <property name="kdenlive:id">3</property>
  </entry>
  <entry producer="producer8" in="00:00:00.000" out="00:00:01.160">
   <property name="kdenlive:id">3</property>
  </entry>
  <entry producer="producer8" in="00:00:00.000" out="00:00:01.160">
   <property name="kdenlive:id">3</property>
  </entry>
  <entry producer="producer8" in="00:00:00.000" out="00:00:01.160">
   <property name="kdenlive:id">3</property>
  </entry>
  <entry producer="producer8" in="00:00:00.000" out="00:00:01.160">
   <property name="kdenlive:id">3</property>
  </entry>
  <entry producer="producer8" in="00:00:00.000" out="00:00:01.160">
   <property name="kdenlive:id">3</property>
  </entry>
 </playlist>
 <playlist id="playlist9"/>
 <tractor id="tractor4" in="00:00:00.000" out="00:00:49.200">
  <property name="kdenlive:trackheight">67</property>
  <property name="kdenlive:timeline_active">0</property>
  <property name="kdenlive:collapsed">28</property>
  <property name="kdenlive:thumbs_format"/>
  <property name="kdenlive:audio_rec"/>
  <track hide="audio" producer="playlist8"/>
  <track hide="audio" producer="playlist9"/>
 </tractor>
 <chain id="chain35" out="00:00:35.960">
  <property name="length">900</property>
  <property name="eof">pause</property>
  <property name="resource">pic/gif/tree_begin/tree_begin_301sec.mov</property>
  <property name="mlt_service">avformat-novalidate</property>
  <property name="seekable">1</property>
  <property name="audio_index">1</property>
  <property name="video_index">0</property>
  <property name="kdenlive:clipname"/>
  <property name="kdenlive:clip_type">0</property>
  <property name="kdenlive:folderid">14</property>
  <property name="kdenlive:id">11</property>
  <property name="mute_on_pause">0</property>
  <property name="kdenlive:file_size">5079571</property>
  <property name="kdenlive:file_hash">8491462b1659e81057d38b1c58390a9b</property>
  <property name="kdenlive:audio_max1">1</property>
  <property name="meta.media.nb_streams">2</property>
  <property name="meta.media.0.stream.type">video</property>
  <property name="meta.media.0.stream.frame_rate">10</property>
  <property name="meta.media.0.stream.sample_aspect_ratio">1</property>
  <property name="meta.media.0.codec.width">500</property>
  <property name="meta.media.0.codec.height">538</property>
  <property name="meta.media.0.codec.rotate">0</property>
  <property name="meta.media.0.codec.pix_fmt">argb</property>
  <property name="meta.media.0.codec.sample_aspect_ratio">0</property>
  <property name="meta.media.0.codec.colorspace">0</property>
  <property name="meta.media.0.codec.color_trc">6</property>
  <property name="meta.media.0.codec.name">qtrle</property>
  <property name="meta.media.0.codec.long_name">QuickTime Animation (RLE) video</property>
  <property name="meta.media.0.codec.bit_rate">1123113</property>
  <property name="meta.attr.0.stream.handler_name.markup">VideoHandler</property>
  <property name="meta.attr.0.stream.vendor_id.markup">FFMP</property>
  <property name="meta.media.1.stream.type">audio</property>
  <property name="meta.media.1.codec.sample_fmt">fltp</property>
  <property name="meta.media.1.codec.sample_rate">48000</property>
  <property name="meta.media.1.codec.channels">2</property>
  <property name="meta.media.1.codec.name">aac</property>
  <property name="meta.media.1.codec.long_name">AAC (Advanced Audio Coding)</property>
  <property name="meta.media.1.codec.bit_rate">2273</property>
  <property name="meta.attr.1.stream.handler_name.markup">SoundHandler</property>
  <property name="meta.attr.1.stream.vendor_id.markup">[0][0][0][0]</property>
  <property name="meta.attr.major_brand.markup">qt  </property>
  <property name="meta.attr.minor_version.markup">512</property>
  <property name="meta.attr.compatible_brands.markup">qt  </property>
  <property name="meta.attr.encoder.markup">Lavf60.3.100</property>
  <property name="meta.media.sample_aspect_num">1</property>
  <property name="meta.media.sample_aspect_den">1</property>
  <property name="meta.media.frame_rate_num">10</property>
  <property name="meta.media.frame_rate_den">1</property>
  <property name="meta.media.colorspace">601</property>
  <property name="meta.media.color_trc">6</property>
  <property name="meta.media.has_b_frames">0</property>
  <property name="meta.media.width">500</property>
  <property name="meta.media.height">538</property>
  <property name="meta.media.color_range">mpeg</property>
  <property name="xml">was here</property>
  <property name="meta.media.top_field_first">0</property>
  <property name="meta.media.progressive">1</property>
  <property name="set.test_audio">1</property>
  <property name="set.test_image">0</property>
 </chain>
 <chain id="chain8" out="00:00:01.160">
  <property name="length">30</property>
  <property name="eof">pause</property>
  <property name="resource">pic/gif/village/afiny_99811d932e15119b27c00b8c18549e24.gif</property>
  <property name="mlt_service">avformat-novalidate</property>
  <property name="seekable">1</property>
  <property name="audio_index">-1</property>
  <property name="video_index">0</property>
  <property name="kdenlive:clipname"/>
  <property name="kdenlive:clip_type">2</property>
  <property name="kdenlive:folderid">7</property>
  <property name="kdenlive:id">17</property>
  <property name="mute_on_pause">0</property>
  <property name="kdenlive:file_size">237168</property>
  <property name="kdenlive:file_hash">1df4cdb8f6f57eb073015a21557c5cbd</property>
  <property name="meta.media.nb_streams">1</property>
  <property name="meta.media.0.stream.type">video</property>
  <property name="meta.media.0.stream.frame_rate">5</property>
  <property name="meta.media.0.stream.sample_aspect_ratio">0</property>
  <property name="meta.media.0.codec.width">960</property>
  <property name="meta.media.0.codec.height">600</property>
  <property name="meta.media.0.codec.rotate">0</property>
  <property name="meta.media.0.codec.pix_fmt">bgra</property>
  <property name="meta.media.0.codec.sample_aspect_ratio">0</property>
  <property name="meta.media.0.codec.colorspace">601</property>
  <property name="meta.media.0.codec.name">gif</property>
  <property name="meta.media.0.codec.long_name">GIF (Graphics Interchange Format)</property>
  <property name="meta.media.0.codec.bit_rate">0</property>
  <property name="meta.media.sample_aspect_num">1</property>
  <property name="meta.media.sample_aspect_den">1</property>
  <property name="meta.media.frame_rate_num">5</property>
  <property name="meta.media.frame_rate_den">1</property>
  <property name="meta.media.colorspace">601</property>
  <property name="meta.media.color_trc">2</property>
  <property name="meta.media.has_b_frames">0</property>
  <property name="meta.media.width">960</property>
  <property name="meta.media.height">600</property>
  <property name="meta.media.color_range">mpeg</property>
  <property name="xml">was here</property>
  <property name="meta.media.top_field_first">0</property>
  <property name="meta.media.progressive">1</property>
  <property name="set.test_audio">1</property>
  <property name="set.test_image">0</property>
 </chain>
 <chain id="chain9" out="00:00:01.160">
  <property name="length">30</property>
  <property name="eof">pause</property>
  <property name="resource">pic/gif/village/fire/fire_village.gif</property>
  <property name="mlt_service">avformat-novalidate</property>
  <property name="seekable">1</property>
  <property name="audio_index">-1</property>
  <property name="video_index">0</property>
  <property name="kdenlive:clipname"/>
  <property name="kdenlive:clip_type">2</property>
  <property name="kdenlive:folderid">29</property>
  <property name="kdenlive:id">20</property>
  <property name="mute_on_pause">0</property>
  <property name="kdenlive:file_size">264727</property>
  <property name="kdenlive:file_hash">923f480de1ca5b34b9c9e3464a83a64d</property>
  <property name="meta.media.nb_streams">1</property>
  <property name="meta.media.0.stream.type">video</property>
  <property name="meta.media.0.stream.frame_rate">6.66667</property>
  <property name="meta.media.0.stream.sample_aspect_ratio">0</property>
  <property name="meta.media.0.codec.width">700</property>
  <property name="meta.media.0.codec.height">544</property>
  <property name="meta.media.0.codec.rotate">0</property>
  <property name="meta.media.0.codec.pix_fmt">bgra</property>
  <property name="meta.media.0.codec.sample_aspect_ratio">0</property>
  <property name="meta.media.0.codec.colorspace">601</property>
  <property name="meta.media.0.codec.name">gif</property>
  <property name="meta.media.0.codec.long_name">GIF (Graphics Interchange Format)</property>
  <property name="meta.media.0.codec.bit_rate">0</property>
  <property name="meta.media.sample_aspect_num">1</property>
  <property name="meta.media.sample_aspect_den">1</property>
  <property name="meta.media.frame_rate_num">20</property>
  <property name="meta.media.frame_rate_den">3</property>
  <property name="meta.media.colorspace">601</property>
  <property name="meta.media.color_trc">2</property>
  <property name="meta.media.has_b_frames">0</property>
  <property name="meta.media.width">700</property>
  <property name="meta.media.height">544</property>
  <property name="meta.media.color_range">mpeg</property>
  <property name="xml">was here</property>
  <property name="meta.media.top_field_first">0</property>
  <property name="meta.media.progressive">1</property>
  <property name="set.test_audio">1</property>
  <property name="set.test_image">0</property>
 </chain>
 <chain id="chain26" out="00:00:16.680">
  <property name="length">418</property>
  <property name="eof">pause</property>
  <property name="resource">video/14.00gameplay_cool_trees_Seasons-0001.mp4.mp4</property>
  <property name="mlt_service">avformat-novalidate</property>
  <property name="seekable">1</property>
  <property name="audio_index">1</property>
  <property name="video_index">0</property>
  <property name="kdenlive:clipname"/>
  <property name="kdenlive:clip_type">0</property>
  <property name="kdenlive:folderid">54</property>
  <property name="kdenlive:id">45</property>
  <property name="mute_on_pause">0</property>
  <property name="kdenlive:file_size">4603900</property>
  <property name="kdenlive:file_hash">df170f80d6f90f7ad923356219859fa6</property>
  <property name="kdenlive:audio_max1">249</property>
  <property name="meta.media.nb_streams">2</property>
  <property name="meta.media.0.stream.type">video</property>
  <property name="meta.media.0.stream.frame_rate">30</property>
  <property name="meta.media.0.stream.sample_aspect_ratio">1</property>
  <property name="meta.media.0.codec.width">1754</property>
  <property name="meta.media.0.codec.height">914</property>
  <property name="meta.media.0.codec.rotate">0</property>
  <property name="meta.media.0.codec.pix_fmt">yuv420p</property>
  <property name="meta.media.0.codec.sample_aspect_ratio">1</property>
  <property name="meta.media.0.codec.colorspace">709</property>
  <property name="meta.media.0.codec.name">h264</property>
  <property name="meta.media.0.codec.long_name">H.264 / AVC / MPEG-4 AVC / MPEG-4 part 10</property>
  <property name="meta.media.0.codec.bit_rate">2080631</property>
  <property name="meta.attr.0.stream.handler_name.markup">VideoHandler</property>
  <property name="meta.attr.0.stream.vendor_id.markup">[0][0][0][0]</property>
  <property name="meta.media.1.stream.type">audio</property>
  <property name="meta.media.1.codec.sample_fmt">fltp</property>
  <property name="meta.media.1.codec.sample_rate">44100</property>
  <property name="meta.media.1.codec.channels">2</property>
  <property name="meta.media.1.codec.name">aac</property>
  <property name="meta.media.1.codec.long_name">AAC (Advanced Audio Coding)</property>
  <property name="meta.media.1.codec.bit_rate">128564</property>
  <property name="meta.attr.1.stream.handler_name.markup">SoundHandler</property>
  <property name="meta.attr.1.stream.vendor_id.markup">[0][0][0][0]</property>
  <property name="meta.attr.major_brand.markup">isom</property>
  <property name="meta.attr.minor_version.markup">512</property>
  <property name="meta.attr.compatible_brands.markup">isomiso2avc1mp41</property>
  <property name="meta.attr.encoder.markup">Lavf58.76.100</property>
  <property name="meta.media.sample_aspect_num">1</property>
  <property name="meta.media.sample_aspect_den">1</property>
  <property name="meta.media.frame_rate_num">30</property>
  <property name="meta.media.frame_rate_den">1</property>
  <property name="meta.media.colorspace">709</property>
  <property name="meta.media.color_trc">2</property>
  <property name="meta.media.has_b_frames">2</property>
  <property name="meta.media.width">1754</property>
  <property name="meta.media.height">914</property>
  <property name="meta.media.color_range">mpeg</property>
  <property name="xml">was here</property>
  <property name="meta.media.top_field_first">0</property>
  <property name="meta.media.progressive">1</property>
  <property name="set.test_audio">1</property>
  <property name="set.test_image">0</property>
 </chain>
 <playlist id="playlist10">
  <entry producer="producer3" in="00:00:00.000" out="00:00:02.360">
   <property name="kdenlive:id">48</property>
  </entry>
  <entry producer="producer7" in="00:00:00.000" out="00:00:02.560">
   <property name="kdenlive:id">32</property>
  </entry>
  <blank length="00:00:07.680"/>
  <entry producer="chain35" in="00:00:00.000" out="00:00:11.560">
   <property name="kdenlive:id">11</property>
   <property name="kdenlive:activeeffect">0</property>
   <filter id="filter18">
    <property name="mlt_service">avfilter.lut3d</property>
    <property name="kdenlive_id">avfilter.lut3d</property>
    <property name="av.file">/tmp/.mount_kdenlivP9v37/usr/share/kdenlive/luts/TEAL_ORANGE.cube</property>
    <property name="av.interp">tetrahedral</property>
    <property name="kdenlive:collapsed">0</property>
   </filter>
   <filter id="filter28">
    <property name="rotate_center">1</property>
    <property name="mlt_service">qtblend</property>
    <property name="kdenlive_id">qtblend</property>
    <property name="rect">00:00:00.000=0 0 1920 1080 1.000000;00:00:02.480=0 0 1920 1080 1.000000;00:00:11.560=599 631 480 270 1.000000</property>
    <property name="rotation">00:00:00.000=0;00:00:02.480=0;00:00:11.560=0</property>
    <property name="compositing">0</property>
    <property name="distort">0</property>
    <property name="kdenlive:collapsed">0</property>
   </filter>
  </entry>
  <blank length="00:00:02.480"/>
  <entry producer="chain8" in="00:00:00.000" out="00:00:01.160">
   <property name="kdenlive:id">17</property>
   <property name="kdenlive:activeeffect">0</property>
   <filter id="filter19">
    <property name="mlt_service">avfilter.lut3d</property>
    <property name="kdenlive_id">avfilter.lut3d</property>
    <property name="av.file">/tmp/.mount_kdenlivP9v37/usr/share/kdenlive/luts/TEAL_ORANGE.cube</property>
    <property name="av.interp">tetrahedral</property>
    <property name="kdenlive:collapsed">0</property>
   </filter>
  </entry>
  <blank length="00:00:00.120"/>
  <entry producer="producer2" in="00:00:00.000" out="00:00:01.920">
   <property name="kdenlive:id">23</property>
  </entry>
  <blank length="00:00:00.960"/>
  <entry producer="chain9" in="00:00:00.000" out="00:00:01.160">
   <property name="kdenlive:id">20</property>
  </entry>
  <entry producer="chain9" in="00:00:00.000" out="00:00:01.160">
   <property name="kdenlive:id">20</property>
  </entry>
  <blank length="00:00:00.760"/>
  <entry producer="chain26" in="00:00:05.840" out="00:00:08.360">
   <property name="kdenlive:id">45</property>
   <property name="kdenlive:activeeffect">-1</property>
  </entry>
 </playlist>
 <playlist id="playlist11"/>
 <tractor id="tractor5" in="00:00:00.000" out="00:00:36.680">
  <property name="kdenlive:trackheight">67</property>
  <property name="kdenlive:timeline_active">1</property>
  <property name="kdenlive:collapsed">28</property>
  <property name="kdenlive:thumbs_format"/>
  <property name="kdenlive:audio_rec"/>
  <track hide="audio" producer="playlist10"/>
  <track hide="audio" producer="playlist11"/>
 </tractor>
 <chain id="chain27" out="00:00:10.360">
  <property name="length">260</property>
  <property name="eof">pause</property>
  <property name="resource">/mnt/sda3/0today/buisnes/game_way_fact/github/trailer/CoolTrees/trailer-blеnder/0001-0250.avi</property>
  <property name="mlt_service">avformat-novalidate</property>
  <property name="seekable">1</property>
  <property name="audio_index">-1</property>
  <property name="video_index">0</property>
  <property name="kdenlive:clipname"/>
  <property name="kdenlive:clip_type">2</property>
  <property name="kdenlive:folderid">58</property>
  <property name="kdenlive:id">43</property>
  <property name="mute_on_pause">0</property>
  <property name="kdenlive:file_size">33738576</property>
  <property name="kdenlive:file_hash">5cd9b36fc56ac022f73d8fcd4711d5f4</property>
  <property name="meta.media.nb_streams">1</property>
  <property name="meta.media.0.stream.type">video</property>
  <property name="meta.media.0.stream.frame_rate">24.0004</property>
  <property name="meta.media.0.stream.sample_aspect_ratio">0</property>
  <property name="meta.media.0.codec.width">1920</property>
  <property name="meta.media.0.codec.height">1080</property>
  <property name="meta.media.0.codec.rotate">0</property>
  <property name="meta.media.0.codec.pix_fmt">yuvj422p</property>
  <property name="meta.media.0.codec.sample_aspect_ratio">0</property>
  <property name="meta.media.0.codec.colorspace">601</property>
  <property name="meta.media.0.codec.name">mjpeg</property>
  <property name="meta.media.0.codec.long_name">MJPEG (Motion JPEG)</property>
  <property name="meta.media.0.codec.bit_rate">26004103</property>
  <property name="meta.media.sample_aspect_num">1</property>
  <property name="meta.media.sample_aspect_den">1</property>
  <property name="meta.media.frame_rate_num">500000</property>
  <property name="meta.media.frame_rate_den">20833</property>
  <property name="meta.media.colorspace">601</property>
  <property name="meta.media.color_trc">2</property>
  <property name="meta.media.has_b_frames">0</property>
  <property name="meta.media.width">1920</property>
  <property name="meta.media.height">1080</property>
  <property name="meta.media.color_range">full</property>
  <property name="xml">was here</property>
  <property name="meta.media.top_field_first">0</property>
  <property name="meta.media.progressive">1</property>
  <property name="set.test_audio">1</property>
  <property name="set.test_image">0</property>
 </chain>
 <producer id="producer5" in="00:00:00.000" out="00:00:02.800">
  <property name="length">71</property>
  <property name="eof">pause</property>
  <property name="resource">9.084507:video/tree_root_2_2023-08-11 09-32-17.mp4</property>
  <property name="aspect_ratio">1</property>
  <property name="meta.media.nb_streams">2</property>
  <property name="meta.media.0.stream.type">video</property>
  <property name="meta.media.0.stream.frame_rate">60</property>
  <property name="meta.media.0.stream.sample_aspect_ratio">0</property>
  <property name="meta.media.0.codec.width">1360</property>
  <property name="meta.media.0.codec.height">768</property>
  <property name="meta.media.0.codec.rotate">0</property>
  <property name="meta.media.0.codec.pix_fmt">yuv420p</property>
  <property name="meta.media.0.codec.sample_aspect_ratio">1</property>
  <property name="meta.media.0.codec.colorspace">709</property>
  <property name="meta.media.0.codec.color_trc">1</property>
  <property name="meta.media.0.codec.name">h264</property>
  <property name="meta.media.0.codec.long_name">H.264 / AVC / MPEG-4 AVC / MPEG-4 part 10</property>
  <property name="meta.media.0.codec.bit_rate">2500364</property>
  <property name="meta.attr.0.stream.handler_name.markup">VideoHandler</property>
  <property name="meta.attr.0.stream.vendor_id.markup">[0][0][0][0]</property>
  <property name="meta.media.1.stream.type">audio</property>
  <property name="meta.media.1.codec.sample_fmt">fltp</property>
  <property name="meta.media.1.codec.sample_rate">48000</property>
  <property name="meta.media.1.codec.channels">2</property>
  <property name="meta.media.1.codec.name">aac</property>
  <property name="meta.media.1.codec.long_name">AAC (Advanced Audio Coding)</property>
  <property name="meta.media.1.codec.bit_rate">2268</property>
  <property name="meta.attr.1.stream.handler_name.markup">SoundHandler</property>
  <property name="meta.attr.1.stream.vendor_id.markup">[0][0][0][0]</property>
  <property name="meta.attr.major_brand.markup">isom</property>
  <property name="meta.attr.minor_version.markup">512</property>
  <property name="meta.attr.compatible_brands.markup">isomiso2avc1mp41</property>
  <property name="meta.attr.encoder.markup">Lavf60.3.100</property>
  <property name="seekable">1</property>
  <property name="meta.media.sample_aspect_num">1</property>
  <property name="meta.media.sample_aspect_den">1</property>
  <property name="audio_index">1</property>
  <property name="video_index">0</property>
  <property name="warp_speed">9.08451</property>
  <property name="warp_resource">video/tree_root_2_2023-08-11 09-32-17.mp4</property>
  <property name="mlt_service">timewarp</property>
  <property name="set.test_audio">1</property>
  <property name="set.test_image">0</property>
  <property name="kdenlive:id">34</property>
  <property name="warp_pitch">0</property>
  <property name="meta.media.frame_rate_num">60</property>
  <property name="meta.media.frame_rate_den">1</property>
  <property name="meta.media.colorspace">709</property>
  <property name="meta.media.color_trc">1</property>
  <property name="meta.media.has_b_frames">1</property>
  <property name="meta.media.width">1360</property>
  <property name="meta.media.height">768</property>
  <property name="meta.media.color_range">mpeg</property>
  <property name="meta.media.top_field_first">0</property>
  <property name="meta.media.progressive">1</property>
 </producer>
 <chain id="chain29" out="00:00:35.960">
  <property name="length">900</property>
  <property name="eof">pause</property>
  <property name="resource">pic/gif/tree_begin/tree_begin_301sec.mov</property>
  <property name="mlt_service">avformat-novalidate</property>
  <property name="seekable">1</property>
  <property name="audio_index">1</property>
  <property name="video_index">0</property>
  <property name="kdenlive:clipname"/>
  <property name="kdenlive:clip_type">0</property>
  <property name="kdenlive:folderid">14</property>
  <property name="kdenlive:id">11</property>
  <property name="mute_on_pause">0</property>
  <property name="kdenlive:file_size">5079571</property>
  <property name="kdenlive:file_hash">8491462b1659e81057d38b1c58390a9b</property>
  <property name="kdenlive:audio_max1">1</property>
  <property name="meta.media.nb_streams">2</property>
  <property name="meta.media.0.stream.type">video</property>
  <property name="meta.media.0.stream.frame_rate">10</property>
  <property name="meta.media.0.stream.sample_aspect_ratio">1</property>
  <property name="meta.media.0.codec.width">500</property>
  <property name="meta.media.0.codec.height">538</property>
  <property name="meta.media.0.codec.rotate">0</property>
  <property name="meta.media.0.codec.pix_fmt">argb</property>
  <property name="meta.media.0.codec.sample_aspect_ratio">0</property>
  <property name="meta.media.0.codec.colorspace">0</property>
  <property name="meta.media.0.codec.color_trc">6</property>
  <property name="meta.media.0.codec.name">qtrle</property>
  <property name="meta.media.0.codec.long_name">QuickTime Animation (RLE) video</property>
  <property name="meta.media.0.codec.bit_rate">1123113</property>
  <property name="meta.attr.0.stream.handler_name.markup">VideoHandler</property>
  <property name="meta.attr.0.stream.vendor_id.markup">FFMP</property>
  <property name="meta.media.1.stream.type">audio</property>
  <property name="meta.media.1.codec.sample_fmt">fltp</property>
  <property name="meta.media.1.codec.sample_rate">48000</property>
  <property name="meta.media.1.codec.channels">2</property>
  <property name="meta.media.1.codec.name">aac</property>
  <property name="meta.media.1.codec.long_name">AAC (Advanced Audio Coding)</property>
  <property name="meta.media.1.codec.bit_rate">2273</property>
  <property name="meta.attr.1.stream.handler_name.markup">SoundHandler</property>
  <property name="meta.attr.1.stream.vendor_id.markup">[0][0][0][0]</property>
  <property name="meta.attr.major_brand.markup">qt  </property>
  <property name="meta.attr.minor_version.markup">512</property>
  <property name="meta.attr.compatible_brands.markup">qt  </property>
  <property name="meta.attr.encoder.markup">Lavf60.3.100</property>
  <property name="meta.media.sample_aspect_num">1</property>
  <property name="meta.media.sample_aspect_den">1</property>
  <property name="meta.media.frame_rate_num">10</property>
  <property name="meta.media.frame_rate_den">1</property>
  <property name="meta.media.colorspace">601</property>
  <property name="meta.media.color_trc">6</property>
  <property name="meta.media.has_b_frames">0</property>
  <property name="meta.media.width">500</property>
  <property name="meta.media.height">538</property>
  <property name="meta.media.color_range">mpeg</property>
  <property name="xml">was here</property>
  <property name="meta.media.top_field_first">0</property>
  <property name="meta.media.progressive">1</property>
  <property name="set.test_audio">1</property>
  <property name="set.test_image">0</property>
 </chain>
 <chain id="chain31" out="00:00:16.680">
  <property name="length">418</property>
  <property name="eof">pause</property>
  <property name="resource">video/14.00gameplay_cool_trees_Seasons-0001.mp4.mp4</property>
  <property name="mlt_service">avformat-novalidate</property>
  <property name="seekable">1</property>
  <property name="audio_index">1</property>
  <property name="video_index">0</property>
  <property name="kdenlive:clipname"/>
  <property name="kdenlive:clip_type">0</property>
  <property name="kdenlive:folderid">54</property>
  <property name="kdenlive:id">45</property>
  <property name="mute_on_pause">0</property>
  <property name="kdenlive:file_size">4603900</property>
  <property name="kdenlive:file_hash">df170f80d6f90f7ad923356219859fa6</property>
  <property name="kdenlive:audio_max1">249</property>
  <property name="meta.media.nb_streams">2</property>
  <property name="meta.media.0.stream.type">video</property>
  <property name="meta.media.0.stream.frame_rate">30</property>
  <property name="meta.media.0.stream.sample_aspect_ratio">1</property>
  <property name="meta.media.0.codec.width">1754</property>
  <property name="meta.media.0.codec.height">914</property>
  <property name="meta.media.0.codec.rotate">0</property>
  <property name="meta.media.0.codec.pix_fmt">yuv420p</property>
  <property name="meta.media.0.codec.sample_aspect_ratio">1</property>
  <property name="meta.media.0.codec.colorspace">709</property>
  <property name="meta.media.0.codec.name">h264</property>
  <property name="meta.media.0.codec.long_name">H.264 / AVC / MPEG-4 AVC / MPEG-4 part 10</property>
  <property name="meta.media.0.codec.bit_rate">2080631</property>
  <property name="meta.attr.0.stream.handler_name.markup">VideoHandler</property>
  <property name="meta.attr.0.stream.vendor_id.markup">[0][0][0][0]</property>
  <property name="meta.media.1.stream.type">audio</property>
  <property name="meta.media.1.codec.sample_fmt">fltp</property>
  <property name="meta.media.1.codec.sample_rate">44100</property>
  <property name="meta.media.1.codec.channels">2</property>
  <property name="meta.media.1.codec.name">aac</property>
  <property name="meta.media.1.codec.long_name">AAC (Advanced Audio Coding)</property>
  <property name="meta.media.1.codec.bit_rate">128564</property>
  <property name="meta.attr.1.stream.handler_name.markup">SoundHandler</property>
  <property name="meta.attr.1.stream.vendor_id.markup">[0][0][0][0]</property>
  <property name="meta.attr.major_brand.markup">isom</property>
  <property name="meta.attr.minor_version.markup">512</property>
  <property name="meta.attr.compatible_brands.markup">isomiso2avc1mp41</property>
  <property name="meta.attr.encoder.markup">Lavf58.76.100</property>
  <property name="meta.media.sample_aspect_num">1</property>
  <property name="meta.media.sample_aspect_den">1</property>
  <property name="meta.media.frame_rate_num">30</property>
  <property name="meta.media.frame_rate_den">1</property>
  <property name="meta.media.colorspace">709</property>
  <property name="meta.media.color_trc">2</property>
  <property name="meta.media.has_b_frames">2</property>
  <property name="meta.media.width">1754</property>
  <property name="meta.media.height">914</property>
  <property name="meta.media.color_range">mpeg</property>
  <property name="xml">was here</property>
  <property name="meta.media.top_field_first">0</property>
  <property name="meta.media.progressive">1</property>
  <property name="set.test_audio">1</property>
  <property name="set.test_image">0</property>
 </chain>
 <playlist id="playlist12">
  <entry producer="producer6" in="00:00:00.000" out="00:00:02.360">
   <property name="kdenlive:id">31</property>
  </entry>
  <blank length="00:00:02.600"/>
  <entry producer="chain27" in="00:00:00.000" out="00:00:08.080">
   <property name="kdenlive:id">43</property>
  </entry>
  <blank length="00:00:11.000"/>
  <entry producer="producer5" in="00:00:00.000" out="00:00:02.800">
   <property name="kdenlive:id">34</property>
   <filter id="filter31">
    <property name="rotate_center">1</property>
    <property name="mlt_service">qtblend</property>
    <property name="kdenlive_id">qtblend</property>
    <property name="rect">00:00:00.000=41 0 1920 1080 1.000000</property>
    <property name="rotation">00:00:00.000=0</property>
    <property name="compositing">0</property>
    <property name="distort">0</property>
    <property name="kdenlive:collapsed">0</property>
   </filter>
   <filter id="filter32">
    <property name="mirror">horizontal</property>
    <property name="mlt_service">mirror</property>
    <property name="kdenlive_id">mirror</property>
    <property name="reverse">0</property>
    <property name="kdenlive:collapsed">0</property>
   </filter>
  </entry>
  <blank length="00:00:01.120"/>
  <entry producer="chain29" in="00:00:00.000" out="00:00:01.920">
   <property name="kdenlive:id">11</property>
   <filter id="filter33">
    <property name="rotate_center">1</property>
    <property name="mlt_service">qtblend</property>
    <property name="kdenlive_id">qtblend</property>
    <property name="rect">00:00:00.000=673 691 480 270 0.630000;00:00:01.760=673 691 480 270 0.630000;00:00:01.920=673 691 480 270 0.000000</property>
    <property name="rotation">00:00:00.000=0;00:00:01.760=0;00:00:01.920=0</property>
    <property name="compositing">0</property>
    <property name="distort">0</property>
    <property name="kdenlive:collapsed">0</property>
   </filter>
  </entry>
  <blank length="00:00:00.960"/>
  <entry producer="chain29" in="00:00:00.000" out="00:00:00.920">
   <property name="kdenlive:id">11</property>
   <filter id="filter34">
    <property name="rotate_center">1</property>
    <property name="mlt_service">qtblend</property>
    <property name="kdenlive_id">qtblend</property>
    <property name="rect">00:00:00.000=980 627 830 467 1.000000</property>
    <property name="rotation">00:00:00.000=0</property>
    <property name="compositing">0</property>
    <property name="distort">0</property>
    <property name="kdenlive:collapsed">0</property>
   </filter>
  </entry>
  <entry producer="chain29" in="00:00:00.000" out="00:00:00.920">
   <property name="kdenlive:id">11</property>
   <filter id="filter35">
    <property name="rotate_center">1</property>
    <property name="mlt_service">qtblend</property>
    <property name="kdenlive_id">qtblend</property>
    <property name="rect">00:00:00.000=980 627 830 467 1.000000</property>
    <property name="rotation">00:00:00.000=0</property>
    <property name="compositing">0</property>
    <property name="distort">0</property>
    <property name="kdenlive:collapsed">0</property>
   </filter>
  </entry>
  <entry producer="chain29" in="00:00:00.000" out="00:00:00.440">
   <property name="kdenlive:id">11</property>
   <filter id="filter36">
    <property name="rotate_center">1</property>
    <property name="mlt_service">qtblend</property>
    <property name="kdenlive_id">qtblend</property>
    <property name="rect">00:00:00.000=980 627 830 467 1.000000</property>
    <property name="rotation">00:00:00.000=0</property>
    <property name="compositing">0</property>
    <property name="distort">0</property>
    <property name="kdenlive:collapsed">0</property>
   </filter>
   <filter id="filter37" in="00:00:00.400" out="00:00:00.440">
    <property name="start">1</property>
    <property name="level">1</property>
    <property name="mlt_service">brightness</property>
    <property name="kdenlive_id">fade_to_black</property>
    <property name="alpha">00:00:00.000=1;00:00:00.040=0</property>
   </filter>
  </entry>
  <blank length="00:00:02.600"/>
  <entry producer="chain31" in="00:00:12.080" out="00:00:14.480">
   <property name="kdenlive:id">45</property>
   <property name="kdenlive:activeeffect">-1</property>
  </entry>
 </playlist>
 <playlist id="playlist13"/>
 <tractor id="tractor6" in="00:00:00.000" out="00:00:38.400">
  <property name="kdenlive:trackheight">67</property>
  <property name="kdenlive:timeline_active">1</property>
  <property name="kdenlive:collapsed">28</property>
  <property name="kdenlive:thumbs_format"/>
  <property name="kdenlive:audio_rec"/>
  <track hide="audio" producer="playlist12"/>
  <track hide="audio" producer="playlist13"/>
 </tractor>
 <chain id="chain32" out="00:00:03.640">
  <property name="length">92</property>
  <property name="eof">pause</property>
  <property name="resource">pic/gif/animal/dog_run_all.mov</property>
  <property name="mlt_service">avformat-novalidate</property>
  <property name="seekable">1</property>
  <property name="audio_index">-1</property>
  <property name="video_index">0</property>
  <property name="kdenlive:clipname"/>
  <property name="kdenlive:clip_type">2</property>
  <property name="kdenlive:folderid">12</property>
  <property name="kdenlive:id">24</property>
  <property name="mute_on_pause">0</property>
  <property name="kdenlive:file_size">1633630</property>
  <property name="kdenlive:file_hash">46e0444915639f3bb3521faf715f402e</property>
  <property name="meta.media.nb_streams">1</property>
  <property name="meta.media.0.stream.type">video</property>
  <property name="meta.media.0.stream.frame_rate">24</property>
  <property name="meta.media.0.stream.sample_aspect_ratio">1</property>
  <property name="meta.media.0.codec.width">768</property>
  <property name="meta.media.0.codec.height">768</property>
  <property name="meta.media.0.codec.rotate">0</property>
  <property name="meta.media.0.codec.pix_fmt">argb</property>
  <property name="meta.media.0.codec.sample_aspect_ratio">0</property>
  <property name="meta.media.0.codec.colorspace">0</property>
  <property name="meta.media.0.codec.color_trc">6</property>
  <property name="meta.media.0.codec.name">qtrle</property>
  <property name="meta.media.0.codec.long_name">QuickTime Animation (RLE) video</property>
  <property name="meta.media.0.codec.bit_rate">3561741</property>
  <property name="meta.attr.0.stream.handler_name.markup">VideoHandler</property>
  <property name="meta.attr.0.stream.vendor_id.markup">FFMP</property>
  <property name="meta.attr.major_brand.markup">qt  </property>
  <property name="meta.attr.minor_version.markup">512</property>
  <property name="meta.attr.compatible_brands.markup">qt  </property>
  <property name="meta.attr.encoder.markup">Lavf60.3.100</property>
  <property name="meta.media.sample_aspect_num">1</property>
  <property name="meta.media.sample_aspect_den">1</property>
  <property name="meta.media.frame_rate_num">24</property>
  <property name="meta.media.frame_rate_den">1</property>
  <property name="meta.media.colorspace">601</property>
  <property name="meta.media.color_trc">6</property>
  <property name="meta.media.has_b_frames">0</property>
  <property name="meta.media.width">768</property>
  <property name="meta.media.height">768</property>
  <property name="meta.media.color_range">mpeg</property>
  <property name="xml">was here</property>
  <property name="meta.media.top_field_first">0</property>
  <property name="meta.media.progressive">1</property>
  <property name="set.test_audio">1</property>
  <property name="set.test_image">0</property>
 </chain>
 <producer id="producer15" in="00:00:00.000" out="00:00:01.400">
  <property name="length">36</property>
  <property name="eof">pause</property>
  <property name="resource">0.666667:pic/gif/attacks/Hammer_attatcks_N8dO.gif</property>
  <property name="aspect_ratio">1</property>
  <property name="meta.media.nb_streams">1</property>
  <property name="meta.media.0.stream.type">video</property>
  <property name="meta.media.0.stream.frame_rate">13.1667</property>
  <property name="meta.media.0.stream.sample_aspect_ratio">0</property>
  <property name="meta.media.0.codec.width">109</property>
  <property name="meta.media.0.codec.height">110</property>
  <property name="meta.media.0.codec.rotate">0</property>
  <property name="meta.media.0.codec.pix_fmt">bgra</property>
  <property name="meta.media.0.codec.sample_aspect_ratio">0</property>
  <property name="meta.media.0.codec.colorspace">601</property>
  <property name="meta.media.0.codec.name">gif</property>
  <property name="meta.media.0.codec.long_name">GIF (Graphics Interchange Format)</property>
  <property name="meta.media.0.codec.bit_rate">0</property>
  <property name="seekable">1</property>
  <property name="meta.media.sample_aspect_num">1</property>
  <property name="meta.media.sample_aspect_den">1</property>
  <property name="audio_index">-1</property>
  <property name="video_index">0</property>
  <property name="warp_speed">0.666667</property>
  <property name="warp_resource">pic/gif/attacks/Hammer_attatcks_N8dO.gif</property>
  <property name="mlt_service">timewarp</property>
  <property name="set.test_audio">1</property>
  <property name="set.test_image">0</property>
  <property name="kdenlive:id">33</property>
  <property name="warp_pitch">0</property>
  <property name="meta.media.frame_rate_num">79</property>
  <property name="meta.media.frame_rate_den">6</property>
  <property name="meta.media.colorspace">601</property>
  <property name="meta.media.color_trc">2</property>
  <property name="meta.media.has_b_frames">0</property>
  <property name="meta.media.width">109</property>
  <property name="meta.media.height">110</property>
  <property name="meta.media.color_range">mpeg</property>
  <property name="meta.media.variable_frame_rate">1</property>
  <property name="meta.media.top_field_first">0</property>
  <property name="meta.media.progressive">1</property>
 </producer>
 <playlist id="playlist14">
  <blank length="00:00:28.080"/>
  <entry producer="chain32" in="00:00:00.000" out="00:00:01.920">
   <property name="kdenlive:id">24</property>
   <filter id="filter39">
    <property name="rotate_center">1</property>
    <property name="mlt_service">qtblend</property>
    <property name="kdenlive_id">qtblend</property>
    <property name="rect">00:00:00.000=-711 590 860 483 1.000000;00:00:01.920=1692 590 860 483 1.000000</property>
    <property name="rotation">00:00:00.000=0;00:00:01.920=0</property>
    <property name="compositing">0</property>
    <property name="distort">0</property>
    <property name="kdenlive:collapsed">0</property>
   </filter>
  </entry>
  <blank length="00:00:02.160"/>
  <entry producer="producer15" in="00:00:00.000" out="00:00:01.160">
   <property name="kdenlive:id">33</property>
   <filter id="filter40">
    <property name="version">0.9</property>
    <property name="mlt_service">frei0r.transparency</property>
    <property name="kdenlive_id">frei0r.transparency</property>
    <property name="0">00:00:00.000=0;00:00:00.440=1;00:00:00.720=1;00:00:01.160=0</property>
    <property name="kdenlive:collapsed">0</property>
   </filter>
  </entry>
 </playlist>
 <playlist id="playlist15"/>
 <tractor id="tractor7" in="00:00:00.000" out="00:00:33.360">
  <property name="kdenlive:trackheight">67</property>
  <property name="kdenlive:timeline_active">1</property>
  <property name="kdenlive:collapsed">28</property>
  <property name="kdenlive:thumbs_format"/>
  <property name="kdenlive:audio_rec"/>
  <track hide="audio" producer="playlist14"/>
  <track hide="audio" producer="playlist15"/>
 </tractor>
 <tractor id="tractor8" in="00:00:00.000" out="00:21:57.880">
  <property name="kdenlive:duration">00:00:49:06</property>
  <property name="kdenlive:maxduration">1231</property>
  <property name="kdenlive:clipname">Sequence 1</property>
  <property name="kdenlive:description"/>
  <property name="kdenlive:uuid">{40bf9778-2ccc-4b25-bfaf-c995d3027876}</property>
  <property name="kdenlive:producer_type">17</property>
  <property name="kdenlive:id">10</property>
  <property name="kdenlive:clip_type">0</property>
  <property name="kdenlive:file_hash">48d490b746495d6cd7a90da08d69b7f9</property>
  <property name="kdenlive:folderid">15</property>
  <property name="kdenlive:sequenceproperties.activeTrack">4</property>
  <property name="kdenlive:sequenceproperties.audioTarget">-1</property>
  <property name="kdenlive:sequenceproperties.disablepreview">0</property>
  <property name="kdenlive:sequenceproperties.documentuuid">{40bf9778-2ccc-4b25-bfaf-c995d3027876}</property>
  <property name="kdenlive:sequenceproperties.hasAudio">1</property>
  <property name="kdenlive:sequenceproperties.hasVideo">1</property>
  <property name="kdenlive:sequenceproperties.position">1231</property>
  <property name="kdenlive:sequenceproperties.scrollPos">2169</property>
  <property name="kdenlive:sequenceproperties.tracksCount">8</property>
  <property name="kdenlive:sequenceproperties.videoTarget">-1</property>
  <property name="kdenlive:sequenceproperties.zonein">0</property>
  <property name="kdenlive:sequenceproperties.zoneout">104</property>
  <property name="kdenlive:sequenceproperties.zoom">4</property>
  <property name="kdenlive:sequenceproperties.groups">[
    {
        "children": [
            {
                "data": "5:805",
                "leaf": "clip",
                "type": "Leaf"
            },
            {
                "data": "5:775",
                "leaf": "clip",
                "type": "Leaf"
            }
        ],
        "type": "Normal"
    }
]
</property>
  <property name="kdenlive:sequenceproperties.guides">[
]
</property>
  <track producer="producer0"/>
  <track producer="tractor0"/>
  <track producer="tractor1"/>
  <track producer="tractor2"/>
  <track producer="tractor3"/>
  <track producer="tractor4"/>
  <track producer="tractor5"/>
  <track producer="tractor6"/>
  <track producer="tractor7"/>
  <transition id="transition0" in="00:00:36.000" out="00:00:36.680">
   <property name="a_track">6</property>
   <property name="b_track">7</property>
   <property name="geometry">00:00:00.000=0% 0% 100% 100% 0%;00:00:00.680=0% 0% 100% 100% 100%</property>
   <property name="factory">loader</property>
   <property name="aligned">0</property>
   <property name="progressive">1</property>
   <property name="mlt_service">composite</property>
   <property name="kdenlive_id">wipe</property>
   <property name="luma"/>
   <property name="softness">0</property>
   <property name="luma_invert">0</property>
   <property name="fill">1</property>
  </transition>
  <transition id="transition1" in="00:00:26.760" out="00:00:26.920">
   <property name="a_track">6</property>
   <property name="b_track">7</property>
   <property name="geometry">00:00:00.000=0% 0% 100% 100% 100%;00:00:00.160=0% 0% 100% 100% 0%</property>
   <property name="factory">loader</property>
   <property name="aligned">0</property>
   <property name="progressive">1</property>
   <property name="mlt_service">composite</property>
   <property name="kdenlive_id">wipe</property>
   <property name="luma"/>
   <property name="softness">0</property>
   <property name="luma_invert">0</property>
   <property name="fill">1</property>
  </transition>
  <transition id="transition2" in="00:00:24.120" out="00:00:24.240">
   <property name="a_track">6</property>
   <property name="b_track">7</property>
   <property name="geometry">00:00:00.000=0% 0% 100% 100% 0%;00:00:00.120=0% 0% 100% 100% 100%</property>
   <property name="factory">loader</property>
   <property name="aligned">0</property>
   <property name="progressive">1</property>
   <property name="mlt_service">composite</property>
   <property name="kdenlive_id">wipe</property>
   <property name="luma"/>
   <property name="softness">0</property>
   <property name="luma_invert">0</property>
   <property name="fill">1</property>
  </transition>
  <transition id="transition3" in="00:00:12.680" out="00:00:13.080">
   <property name="a_track">6</property>
   <property name="b_track">7</property>
   <property name="geometry">00:00:00.000=0% 0% 100% 100% 100%;00:00:00.400=0% 0% 100% 100% 0%</property>
   <property name="factory">loader</property>
   <property name="aligned">0</property>
   <property name="progressive">1</property>
   <property name="mlt_service">composite</property>
   <property name="kdenlive_id">wipe</property>
   <property name="luma"/>
   <property name="softness">0</property>
   <property name="luma_invert">0</property>
   <property name="fill">1</property>
  </transition>
  <transition id="transition4" in="00:00:32.920" out="00:00:33.360">
   <property name="a_track">5</property>
   <property name="b_track">6</property>
   <property name="geometry">00:00:00.000=0% 0% 100% 100% 100%;00:00:00.440=0% 0% 100% 100% 0%</property>
   <property name="factory">loader</property>
   <property name="aligned">0</property>
   <property name="progressive">1</property>
   <property name="mlt_service">composite</property>
   <property name="kdenlive_id">wipe</property>
   <property name="luma"/>
   <property name="softness">0</property>
   <property name="luma_invert">0</property>
   <property name="fill">1</property>
  </transition>
  <transition id="transition5" in="00:00:34.160" out="00:00:35.520">
   <property name="a_track">5</property>
   <property name="b_track">6</property>
   <property name="geometry">00:00:00.000=0% 0% 100% 100% 0%;00:00:01.360=0% 0% 100% 100% 100%</property>
   <property name="factory">loader</property>
   <property name="aligned">0</property>
   <property name="progressive">1</property>
   <property name="mlt_service">composite</property>
   <property name="kdenlive_id">wipe</property>
   <property name="luma"/>
   <property name="softness">0</property>
   <property name="luma_invert">0</property>
   <property name="fill">1</property>
  </transition>
  <transition id="transition6" in="00:00:31.000" out="00:00:31.360">
   <property name="a_track">5</property>
   <property name="b_track">6</property>
   <property name="geometry">00:00:00.000=0% 0% 100% 100% 0%;00:00:00.360=0% 0% 100% 100% 100%</property>
   <property name="factory">loader</property>
   <property name="aligned">0</property>
   <property name="progressive">1</property>
   <property name="mlt_service">composite</property>
   <property name="kdenlive_id">wipe</property>
   <property name="luma"/>
   <property name="softness">0</property>
   <property name="luma_invert">0</property>
   <property name="fill">1</property>
  </transition>
  <transition id="transition7" in="00:00:29.880" out="00:00:30.000">
   <property name="a_track">5</property>
   <property name="b_track">6</property>
   <property name="geometry">00:00:00.000=0% 0% 100% 100% 100%;00:00:00.120=0% 0% 100% 100% 0%</property>
   <property name="factory">loader</property>
   <property name="aligned">0</property>
   <property name="progressive">1</property>
   <property name="mlt_service">composite</property>
   <property name="kdenlive_id">wipe</property>
   <property name="luma"/>
   <property name="softness">0</property>
   <property name="luma_invert">0</property>
   <property name="fill">1</property>
  </transition>
  <transition id="transition8" in="00:00:28.080" out="00:00:28.240">
   <property name="a_track">5</property>
   <property name="b_track">6</property>
   <property name="geometry">00:00:00.000=0% 0% 100% 100% 0%;00:00:00.160=0% 0% 100% 100% 100%</property>
   <property name="factory">loader</property>
   <property name="aligned">0</property>
   <property name="progressive">1</property>
   <property name="mlt_service">composite</property>
   <property name="kdenlive_id">wipe</property>
   <property name="luma"/>
   <property name="softness">0</property>
   <property name="luma_invert">0</property>
   <property name="fill">1</property>
  </transition>
  <transition id="transition9">
   <property name="a_track">0</property>
   <property name="b_track">1</property>
   <property name="mlt_service">mix</property>
   <property name="kdenlive_id">mix</property>
   <property name="internal_added">237</property>
   <property name="always_active">1</property>
   <property name="accepts_blanks">1</property>
   <property name="sum">1</property>
  </transition>
  <transition id="transition10">
   <property name="a_track">0</property>
   <property name="b_track">2</property>
   <property name="mlt_service">mix</property>
   <property name="kdenlive_id">mix</property>
   <property name="internal_added">237</property>
   <property name="always_active">1</property>
   <property name="accepts_blanks">1</property>
   <property name="sum">1</property>
  </transition>
  <transition id="transition11">
   <property name="a_track">0</property>
   <property name="b_track">3</property>
   <property name="mlt_service">mix</property>
   <property name="kdenlive_id">mix</property>
   <property name="internal_added">237</property>
   <property name="always_active">1</property>
   <property name="accepts_blanks">1</property>
   <property name="sum">1</property>
  </transition>
  <transition id="transition12">
   <property name="a_track">0</property>
   <property name="b_track">4</property>
   <property name="mlt_service">mix</property>
   <property name="kdenlive_id">mix</property>
   <property name="internal_added">237</property>
   <property name="always_active">1</property>
   <property name="accepts_blanks">1</property>
   <property name="sum">1</property>
  </transition>
  <transition id="transition13">
   <property name="a_track">0</property>
   <property name="b_track">5</property>
   <property name="version">0.1</property>
   <property name="mlt_service">frei0r.cairoblend</property>
   <property name="always_active">1</property>
   <property name="internal_added">237</property>
  </transition>
  <transition id="transition14">
   <property name="a_track">0</property>
   <property name="b_track">6</property>
   <property name="version">0.1</property>
   <property name="mlt_service">frei0r.cairoblend</property>
   <property name="always_active">1</property>
   <property name="internal_added">237</property>
  </transition>
  <transition id="transition15">
   <property name="a_track">0</property>
   <property name="b_track">7</property>
   <property name="version">0.1</property>
   <property name="mlt_service">frei0r.cairoblend</property>
   <property name="always_active">1</property>
   <property name="internal_added">237</property>
  </transition>
  <transition id="transition16">
   <property name="a_track">0</property>
   <property name="b_track">8</property>
   <property name="version">0.1</property>
   <property name="mlt_service">frei0r.cairoblend</property>
   <property name="always_active">1</property>
   <property name="internal_added">237</property>
  </transition>
  <filter id="filter21">
   <property name="window">75</property>
   <property name="max_gain">20dB</property>
   <property name="mlt_service">volume</property>
   <property name="internal_added">237</property>
   <property name="disable">1</property>
  </filter>
  <filter id="filter22">
   <property name="channel">-1</property>
   <property name="mlt_service">panner</property>
   <property name="internal_added">237</property>
   <property name="start">0.5</property>
   <property name="disable">1</property>
  </filter>
  <filter id="filter41">
   <property name="window">75</property>
   <property name="max_gain">20dB</property>
   <property name="mlt_service">volume</property>
   <property name="internal_added">237</property>
   <property name="disable">1</property>
  </filter>
  <filter id="filter42">
   <property name="channel">-1</property>
   <property name="mlt_service">panner</property>
   <property name="internal_added">237</property>
   <property name="start">0.5</property>
   <property name="disable">1</property>
  </filter>
  <filter id="filter43">
   <property name="window">75</property>
   <property name="max_gain">20dB</property>
   <property name="mlt_service">volume</property>
   <property name="internal_added">237</property>
   <property name="disable">1</property>
  </filter>
  <filter id="filter44">
   <property name="channel">-1</property>
   <property name="mlt_service">panner</property>
   <property name="internal_added">237</property>
   <property name="start">0.5</property>
   <property name="disable">1</property>
  </filter>
  <filter id="filter45">
   <property name="window">75</property>
   <property name="max_gain">20dB</property>
   <property name="mlt_service">volume</property>
   <property name="internal_added">237</property>
   <property name="disable">1</property>
  </filter>
  <filter id="filter46">
   <property name="channel">-1</property>
   <property name="mlt_service">panner</property>
   <property name="internal_added">237</property>
   <property name="start">0.5</property>
   <property name="disable">1</property>
  </filter>
  <filter id="filter47">
   <property name="window">75</property>
   <property name="max_gain">20dB</property>
   <property name="mlt_service">volume</property>
   <property name="internal_added">237</property>
   <property name="disable">1</property>
  </filter>
  <filter id="filter48">
   <property name="channel">-1</property>
   <property name="mlt_service">panner</property>
   <property name="internal_added">237</property>
   <property name="start">0.5</property>
   <property name="disable">1</property>
  </filter>
  <filter id="filter49">
   <property name="window">75</property>
   <property name="max_gain">20dB</property>
   <property name="mlt_service">volume</property>
   <property name="internal_added">237</property>
   <property name="disable">1</property>
  </filter>
  <filter id="filter50">
   <property name="channel">-1</property>
   <property name="mlt_service">panner</property>
   <property name="internal_added">237</property>
   <property name="start">0.5</property>
   <property name="disable">1</property>
  </filter>
  <filter id="filter51">
   <property name="window">75</property>
   <property name="max_gain">20dB</property>
   <property name="mlt_service">volume</property>
   <property name="internal_added">237</property>
   <property name="disable">1</property>
  </filter>
  <filter id="filter52">
   <property name="channel">-1</property>
   <property name="mlt_service">panner</property>
   <property name="internal_added">237</property>
   <property name="start">0.5</property>
   <property name="disable">1</property>
  </filter>
  <filter id="filter53">
   <property name="window">75</property>
   <property name="max_gain">20dB</property>
   <property name="mlt_service">volume</property>
   <property name="internal_added">237</property>
   <property name="disable">1</property>
  </filter>
  <filter id="filter54">
   <property name="channel">-1</property>
   <property name="mlt_service">panner</property>
   <property name="internal_added">237</property>
   <property name="start">0.5</property>
   <property name="disable">1</property>
  </filter>
  <filter id="filter55">
   <property name="window">75</property>
   <property name="max_gain">20dB</property>
   <property name="mlt_service">volume</property>
   <property name="internal_added">237</property>
   <property name="disable">1</property>
  </filter>
  <filter id="filter56">
   <property name="channel">-1</property>
   <property name="mlt_service">panner</property>
   <property name="internal_added">237</property>
   <property name="start">0.5</property>
   <property name="disable">1</property>
  </filter>
  <filter id="filter57">
   <property name="window">75</property>
   <property name="max_gain">20dB</property>
   <property name="mlt_service">volume</property>
   <property name="internal_added">237</property>
   <property name="disable">1</property>
  </filter>
  <filter id="filter58">
   <property name="channel">-1</property>
   <property name="mlt_service">panner</property>
   <property name="internal_added">237</property>
   <property name="start">0.5</property>
   <property name="disable">1</property>
  </filter>
  <filter id="filter59">
   <property name="window">75</property>
   <property name="max_gain">20dB</property>
   <property name="mlt_service">volume</property>
   <property name="internal_added">237</property>
   <property name="disable">1</property>
  </filter>
  <filter id="filter60">
   <property name="channel">-1</property>
   <property name="mlt_service">panner</property>
   <property name="internal_added">237</property>
   <property name="start">0.5</property>
   <property name="disable">1</property>
  </filter>
  <filter id="filter61">
   <property name="window">75</property>
   <property name="max_gain">20dB</property>
   <property name="level">0</property>
   <property name="mlt_service">volume</property>
   <property name="internal_added">237</property>
   <property name="disable">1</property>
  </filter>
  <filter id="filter62">
   <property name="channel">-1</property>
   <property name="mlt_service">panner</property>
   <property name="internal_added">237</property>
   <property name="start">0.5</property>
   <property name="disable">1</property>
  </filter>
  <filter id="filter63">
   <property name="window">75</property>
   <property name="max_gain">20dB</property>
   <property name="mlt_service">volume</property>
   <property name="internal_added">237</property>
   <property name="disable">1</property>
  </filter>
  <filter id="filter64">
   <property name="channel">-1</property>
   <property name="mlt_service">panner</property>
   <property name="internal_added">237</property>
   <property name="start">0.5</property>
   <property name="disable">1</property>
  </filter>
  <filter id="filter65">
   <property name="window">75</property>
   <property name="max_gain">20dB</property>
   <property name="mlt_service">volume</property>
   <property name="internal_added">237</property>
   <property name="disable">1</property>
  </filter>
  <filter id="filter66">
   <property name="channel">-1</property>
   <property name="mlt_service">panner</property>
   <property name="internal_added">237</property>
   <property name="start">0.5</property>
   <property name="disable">1</property>
  </filter>
 </tractor>
 <playlist id="main_bin">
  <property name="kdenlive:folder.-1.15">Sequences</property>
  <property name="kdenlive:folder.-1.37">Music</property>
  <property name="kdenlive:folder.-1.40">pic</property>
  <property name="kdenlive:folder.-1.54">Gameplay</property>
  <property name="kdenlive:folder.-1.58">Video</property>
  <property name="kdenlive:folder.37.47">voice</property>
  <property name="kdenlive:folder.40.2">gif</property>
  <property name="kdenlive:folder.40.41">logo</property>
  <property name="kdenlive:folder.2.7">village</property>
  <property name="kdenlive:folder.2.12">animal</property>
  <property name="kdenlive:folder.2.14">tree</property>
  <property name="kdenlive:folder.2.22">attacks</property>
  <property name="kdenlive:folder.7.29">fire</property>
  <property name="kdenlive:docproperties.activetimeline">{40bf9778-2ccc-4b25-bfaf-c995d3027876}</property>
  <property name="kdenlive:docproperties.audioChannels">2</property>
  <property name="kdenlive:docproperties.browserurl">/home/guest/Videos/</property>
  <property name="kdenlive:docproperties.compositing">1</property>
  <property name="kdenlive:docproperties.documentid">1691182156189</property>
  <property name="kdenlive:docproperties.enableTimelineZone">0</property>
  <property name="kdenlive:docproperties.enableexternalproxy">0</property>
  <property name="kdenlive:docproperties.enableproxy">0</property>
  <property name="kdenlive:docproperties.externalproxyparams"/>
  <property name="kdenlive:docproperties.generateimageproxy">0</property>
  <property name="kdenlive:docproperties.generateproxy">0</property>
  <property name="kdenlive:docproperties.guidesCategories">[
    {
        "color": "#9b59b6",
        "comment": "Category 1",
        "index": 0
    },
    {
        "color": "#3daee9",
        "comment": "Category 2",
        "index": 1
    },
    {
        "color": "#1abc9c",
        "comment": "Category 3",
        "index": 2
    },
    {
        "color": "#1cdc9a",
        "comment": "Category 4",
        "index": 3
    },
    {
        "color": "#c9ce3b",
        "comment": "Category 5",
        "index": 4
    },
    {
        "color": "#fdbc4b",
        "comment": "Category 6",
        "index": 5
    },
    {
        "color": "#f39c1f",
        "comment": "Category 7",
        "index": 6
    },
    {
        "color": "#f47750",
        "comment": "Category 8",
        "index": 7
    },
    {
        "color": "#da4453",
        "comment": "Category 9",
        "index": 8
    }
]
</property>
  <property name="kdenlive:docproperties.kdenliveversion">23.04.3</property>
  <property name="kdenlive:docproperties.opensequences">{40bf9778-2ccc-4b25-bfaf-c995d3027876}</property>
  <property name="kdenlive:docproperties.previewextension">mov</property>
  <property name="kdenlive:docproperties.previewparameters">r=25 s=1920x1080 vb=36M threads=0 vcodec=dnxhd progressive=1</property>
  <property name="kdenlive:docproperties.profile">atsc_1080p_25</property>
  <property name="kdenlive:docproperties.proxyextension"/>
  <property name="kdenlive:docproperties.proxyimageminsize">2000</property>
  <property name="kdenlive:docproperties.proxyimagesize">800</property>
  <property name="kdenlive:docproperties.proxyminsize">1000</property>
  <property name="kdenlive:docproperties.proxyparams"/>
  <property name="kdenlive:docproperties.proxyresize">640</property>
  <property name="kdenlive:docproperties.renderaudioquality">192</property>
  <property name="kdenlive:docproperties.rendercategory">Generic (HD for web, mobile devices...)</property>
  <property name="kdenlive:docproperties.rendercustomquality">-1</property>
  <property name="kdenlive:docproperties.renderendguide">-1</property>
  <property name="kdenlive:docproperties.renderexportaudio">0</property>
  <property name="kdenlive:docproperties.renderfield">0</property>
  <property name="kdenlive:docproperties.renderfullcolorrange">0</property>
  <property name="kdenlive:docproperties.renderguide">0</property>
  <property name="kdenlive:docproperties.rendermode">0</property>
  <property name="kdenlive:docproperties.renderplay">0</property>
  <property name="kdenlive:docproperties.renderpreview">0</property>
  <property name="kdenlive:docproperties.renderprofile">MP4-H264/AAC</property>
  <property name="kdenlive:docproperties.renderquality">23</property>
  <property name="kdenlive:docproperties.renderratio">1</property>
  <property name="kdenlive:docproperties.renderrescale">0</property>
  <property name="kdenlive:docproperties.renderrescaleheight">540</property>
  <property name="kdenlive:docproperties.renderrescalewidth">960</property>
  <property name="kdenlive:docproperties.renderscanning">0</property>
  <property name="kdenlive:docproperties.renderspeed">2</property>
  <property name="kdenlive:docproperties.renderstartguide">-1</property>
  <property name="kdenlive:docproperties.rendertcoverlay">0</property>
  <property name="kdenlive:docproperties.rendertctype">-1</property>
  <property name="kdenlive:docproperties.rendertwopass">0</property>
  <property name="kdenlive:docproperties.renderurl">cool_trees_traile3r.mp4</property>
  <property name="kdenlive:docproperties.renderzone">0</property>
  <property name="kdenlive:docproperties.seekOffset">30000</property>
  <property name="kdenlive:docproperties.uuid">{40bf9778-2ccc-4b25-bfaf-c995d3027876}</property>
  <property name="kdenlive:docproperties.version">1.1</property>
  <property name="kdenlive:docproperties.verticalzoom">1</property>
  <property name="kdenlive:docproperties.zoom">7</property>
  <property name="kdenlive:expandedFolders">22;2;47;58;54;40;37;15;41</property>
  <property name="kdenlive:binZoom">4</property>
  <property name="kdenlive:documentnotes"/>
  <property name="xml_retain">1</property>
  <entry producer="producer12" in="00:00:00.000" out="00:00:01.160"/>
  <entry producer="producer13" in="00:00:00.000" out="00:00:02.160"/>
  <entry producer="producer9" in="00:00:00.000" out="00:00:00.920"/>
  <entry producer="producer10" in="00:00:00.000" out="00:00:00.920"/>
  <entry producer="producer11" in="00:00:00.000" out="00:00:00.360"/>
  <entry producer="producer14" in="00:00:00.000" out="00:00:02.360"/>
  <entry producer="chain20" in="00:00:00.000" out="00:00:35.960"/>
  <entry producer="chain12" in="00:00:00.000" out="00:00:20.360"/>
  <entry producer="chain13" in="00:00:00.000" out="00:00:31.560"/>
  <entry producer="chain14" in="00:00:00.000" out="00:00:01.160"/>
  <entry producer="chain21" in="00:00:00.000" out="00:00:09.200"/>
  <entry producer="chain15" in="00:00:00.000" out="00:00:19.360"/>
  <entry producer="chain16" in="00:00:00.000" out="00:00:01.160"/>
  <entry producer="chain17" in="00:00:00.000" out="00:00:03.160"/>
  <entry producer="producer2" in="00:00:00.000" out="00:00:04.960"/>
  <entry producer="chain19" in="00:00:00.000" out="00:00:03.640"/>
  <entry producer="chain18" in="00:00:00.000" out="00:00:19.160"/>
  <entry producer="chain10" in="00:00:00.000" out="00:02:09.440"/>
  <entry producer="chain11" in="00:00:00.000" out="00:01:00.080"/>
  <entry producer="chain22" in="00:00:00.000" out="00:09:59.960"/>
  <entry producer="producer1" in="00:00:00.000" out="00:00:04.960"/>
  <entry producer="producer6" in="00:00:00.000" out="00:00:04.960"/>
  <entry producer="producer7" in="00:00:00.000" out="00:00:04.960"/>
  <entry producer="chain23" in="00:00:00.000" out="00:00:00.920"/>
  <entry producer="chain39" in="00:00:00.000" out="00:00:25.760"/>
  <entry producer="chain33" in="00:00:00.000" out="00:02:02.000"/>
  <entry producer="chain34" in="00:00:00.000" out="00:00:10.920"/>
  <entry producer="chain36" in="00:00:00.000" out="00:00:07.160"/>
  <entry producer="chain37" in="00:00:00.000" out="00:00:07.600"/>
  <entry producer="chain38" in="00:00:00.000" out="00:00:03.600"/>
  <entry producer="chain40" in="00:00:00.000" out="00:00:10.360"/>
  <entry producer="chain41" in="00:00:00.000" out="00:00:10.080"/>
  <entry producer="chain42" in="00:00:00.000" out="00:00:16.680"/>
  <entry producer="producer16" in="00:00:00.000" out="00:00:04.960"/>
  <entry producer="producer3" in="00:00:00.000" out="00:00:04.960"/>
  <entry producer="tractor8" in="00:00:00.000" out="00:00:48.960"/>
 </playlist>
 <tractor id="tractor9" in="00:00:00.000" out="00:00:49.240">
  <property name="kdenlive:projectTractor">1</property>
  <track producer="tractor8" in="00:00:00.000" out="00:00:49.240"/>
 </tractor>
</mlt>
